<?xml version="1.0" encoding="UTF-8"?>
<!DOCTYPE svg PUBLIC "-//W3C//DTD SVG 1.1//EN" "http://www.w3.org/Graphics/SVG/1.1/DTD/svg11.dtd">
<svg xmlns="http://www.w3.org/2000/svg" version="1.1" width="725px" height="725px" style="shape-rendering:geometricPrecision; text-rendering:geometricPrecision; image-rendering:optimizeQuality; fill-rule:evenodd; clip-rule:evenodd" xmlns:xlink="http://www.w3.org/1999/xlink">
<g><path style="opacity:1" fill="#070707" d="M 118.5,-0.5 C 317.833,-0.5 517.167,-0.5 716.5,-0.5C 716.5,0.166667 716.833,0.5 717.5,0.5C 717.81,2.14363 718.81,3.14363 720.5,3.5C 721.79,4.05773 722.623,5.05773 723,6.5C 723.167,201 723.667,395.334 724.5,589.5C 724.5,606.167 724.5,622.833 724.5,639.5C 722.753,657.137 717.586,673.804 709,689.5C 693.683,710.577 672.85,721.243 646.5,721.5C 642.818,721.335 639.152,721.501 635.5,722C 634.584,722.278 633.918,722.778 633.5,723.5C 628.305,723.179 623.305,723.513 618.5,724.5C 610.167,724.5 601.833,724.5 593.5,724.5C 398,723.667 202.334,723.167 6.5,723C 5.5842,722.722 4.91753,722.222 4.5,721.5C 4.14363,719.81 3.14363,718.81 1.5,718.5C 0.834467,522.069 0.1678,325.736 -0.5,129.5C -0.5,115.833 -0.5,102.167 -0.5,88.5C 0.166667,88.5 0.5,88.1667 0.5,87.5C 2.03084,82.7498 2.69751,77.7498 2.5,72.5C 2.69111,68.7379 3.35778,65.0712 4.5,61.5C 6.07394,59.8984 6.74061,57.8984 6.5,55.5C 8.10099,48.9698 10.7677,42.9698 14.5,37.5C 15.9063,37.0269 16.573,36.0269 16.5,34.5C 18.5869,33.4154 19.9202,31.7488 20.5,29.5C 23.5,27.1667 26.1667,24.5 28.5,21.5C 33.7598,15.9273 40.0931,11.9273 47.5,9.5C 50.1522,9.59047 52.4855,8.92381 54.5,7.5C 60.503,5.15747 66.8363,3.65747 73.5,3C 88.6798,2.16273 103.68,0.996068 118.5,-0.5 Z"/></g>
<g><path style="opacity:1" fill="#6c6c6c" d="M 717.5,0.5 C 719.19,0.856369 720.19,1.85637 720.5,3.5C 718.81,3.14363 717.81,2.14363 717.5,0.5 Z"/></g>
<g><path style="opacity:1" fill="#5d5d5d" d="M 54.5,7.5 C 52.4855,8.92381 50.1522,9.59047 47.5,9.5C 49.5145,8.07619 51.8478,7.40953 54.5,7.5 Z"/></g>
<g><path style="opacity:1" fill="#9aa6ad" d="M 129.5,17.5 C 321.5,17.5 513.5,17.5 705.5,17.5C 705.667,227.834 705.5,438.167 705,648.5C 699.964,682.87 680.13,701.37 645.5,704C 636.179,704.833 626.845,705.499 617.5,706C 417.5,706.5 217.5,706.667 17.5,706.5C 17.3955,499.151 17.5621,291.818 18,84.5C 19.5818,72.0061 22.9151,60.0061 28,48.5C 39.6377,30.9203 56.1377,21.4203 77.5,20C 95.0003,19.319 112.334,18.4857 129.5,17.5 Z"/></g>
<g><path style="opacity:1" fill="#6e6e6e" d="M 28.5,21.5 C 26.1667,24.5 23.5,27.1667 20.5,29.5C 22.1667,25.8333 24.8333,23.1667 28.5,21.5 Z"/></g>
<g><path style="opacity:1" fill="#525252" d="M 20.5,29.5 C 19.9202,31.7488 18.5869,33.4154 16.5,34.5C 17.0798,32.2512 18.4131,30.5846 20.5,29.5 Z"/></g>
<g><path style="opacity:1" fill="#747474" d="M 16.5,34.5 C 16.573,36.0269 15.9063,37.0269 14.5,37.5C 14.427,35.9731 15.0937,34.9731 16.5,34.5 Z"/></g>
<g><path style="opacity:1" fill="#030405" d="M 83.5,37.5 C 173.163,38.3903 262.83,38.7236 352.5,38.5C 352.97,69.883 352.47,101.216 351,132.5C 349.833,133.667 348.667,134.833 347.5,136C 335.167,142.5 322.833,149 310.5,155.5C 321.659,165.823 332.992,175.99 344.5,186C 348.341,189.508 351.841,193.341 355,197.5C 355.667,200.167 355.667,202.833 355,205.5C 345.767,212.866 336.267,219.866 326.5,226.5C 335.468,233.302 343.968,240.635 352,248.5C 352.667,307.833 352.667,367.167 352,426.5C 333.254,429.306 314.42,431.806 295.5,434C 255.213,440.715 217.879,454.715 183.5,476C 151.938,497.216 123.438,522.05 98,550.5C 83.4447,568.94 71.4447,588.94 62,610.5C 60.6099,617.671 58.6099,624.671 56,631.5C 47.937,639.207 41.937,637.874 38,627.5C 37.6667,546.167 37.3333,464.833 37,383.5C 33.8329,340.82 33.8329,298.153 37,255.5C 37.3333,203.833 37.6667,152.167 38,100.5C 37.8562,84.3243 41.8562,69.3243 50,55.5C 59.0429,45.4388 70.2095,39.4388 83.5,37.5 Z"/></g>
<g><path style="opacity:1" fill="#030303" d="M 375.5,38.5 C 476.501,38.3333 577.501,38.5 678.5,39C 680,40.5 681.5,42 683,43.5C 683.333,117.167 683.667,190.833 684,264.5C 685.839,298.149 685.839,331.816 684,365.5C 683.667,451.833 683.333,538.167 683,624.5C 681.431,667.23 659.264,686.897 616.5,683.5C 610.833,683.333 605.167,683.167 599.5,683C 599.043,682.586 598.709,682.086 598.5,681.5C 609.743,673.047 617.576,662.047 622,648.5C 623.777,639.506 625.443,630.506 627,621.5C 629.795,552.191 631.961,482.858 633.5,413.5C 633.167,408.833 632.833,404.167 632.5,399.5C 614.693,414.067 594.36,423.233 571.5,427C 557.521,428.225 543.521,429.059 529.5,429.5C 478.516,427.674 427.516,426.507 376.5,426C 376,425.5 375.5,425 375,424.5C 374.667,367.167 374.333,309.833 374,252.5C 368.1,246.603 361.6,241.436 354.5,237C 350.967,230.768 352.3,225.768 358.5,222C 366.833,216.167 375.167,210.333 383.5,204.5C 368.543,191.38 353.71,178.047 339,164.5C 336.109,158.103 337.609,152.936 343.5,149C 353.588,143.29 363.921,138.123 374.5,133.5C 374.181,101.79 374.515,70.123 375.5,38.5 Z"/></g>
<g><path style="opacity:1" fill="#182b0a" d="M 568.5,52.5 C 558.167,52.5 547.833,52.5 537.5,52.5C 537.5,53.5 537.5,54.5 537.5,55.5C 536.027,54.928 534.693,54.0946 533.5,53C 534.167,52.6667 534.833,52.3333 535.5,52C 546.674,51.1743 557.674,51.341 568.5,52.5 Z"/></g>
<g><path style="opacity:1" fill="#50780b" d="M 136.5,52.5 C 136.5,52.8333 136.5,53.1667 136.5,53.5C 119.826,53.5419 103.159,53.8752 86.5,54.5C 89.977,53.6773 93.6437,53.1773 97.5,53C 110.496,52.5001 123.496,52.3334 136.5,52.5 Z"/></g>
<g><path style="opacity:1" fill="#71a518" d="M 136.5,53.5 C 136.5,53.1667 136.5,52.8333 136.5,52.5C 152.833,52.5 169.167,52.5 185.5,52.5C 185.43,55.659 183.763,57.3257 180.5,57.5C 180.5,56.1667 180.5,54.8333 180.5,53.5C 165.833,53.5 151.167,53.5 136.5,53.5 Z"/></g>
<g><path style="opacity:1" fill="#3b5b08" d="M 568.5,52.5 C 580.678,52.1716 592.678,52.5049 604.5,53.5C 585.167,53.5 565.833,53.5 546.5,53.5C 543.813,53.3359 541.146,53.5026 538.5,54C 539.252,54.6708 539.586,55.5041 539.5,56.5C 538.508,56.6716 537.842,56.3382 537.5,55.5C 537.5,54.5 537.5,53.5 537.5,52.5C 547.833,52.5 558.167,52.5 568.5,52.5 Z"/></g>
<g><path style="opacity:1" fill="#32540a" d="M 606.5,53.5 C 621.837,53.3334 637.17,53.5001 652.5,54C 658.513,54.0085 664.346,54.8419 670,56.5C 670.83,82.3366 670.663,108.003 669.5,133.5C 669.5,108.167 669.5,82.8333 669.5,57.5C 668.5,57.5 667.5,57.5 666.5,57.5C 666.389,56.8826 666.056,56.3826 665.5,56C 645.677,55.0808 626.011,54.2475 606.5,53.5 Z"/></g>
<g><path style="opacity:1" fill="#575c6b" d="M 313.5,54.5 C 296.367,56.2511 279.034,56.9177 261.5,56.5C 278.654,55.2679 295.987,54.6012 313.5,54.5 Z"/></g>
<g><path style="opacity:1" fill="#88ba2e" d="M 546.5,53.5 C 546.373,56.245 547.54,58.245 550,59.5C 550.414,59.0426 550.914,58.7093 551.5,58.5C 555.467,61.2756 559.8,63.4423 564.5,65C 565.748,66.3997 566.748,67.8997 567.5,69.5C 558.366,64.7862 549.033,60.4529 539.5,56.5C 539.586,55.5041 539.252,54.6708 538.5,54C 541.146,53.5026 543.813,53.3359 546.5,53.5 Z"/></g>
<g><path style="opacity:1" fill="#223b0a" d="M 136.5,52.5 C 153.995,51.3381 171.662,51.1714 189.5,52C 189.957,52.414 190.291,52.914 190.5,53.5C 183.389,58.2247 175.723,61.5581 167.5,63.5C 171.389,60.725 175.722,58.725 180.5,57.5C 183.763,57.3257 185.43,55.659 185.5,52.5C 169.167,52.5 152.833,52.5 136.5,52.5 Z"/></g>
<g><path style="opacity:1" fill="#686868" d="M 6.5,55.5 C 6.74061,57.8984 6.07394,59.8984 4.5,61.5C 4.59495,59.2143 5.26162,57.2143 6.5,55.5 Z"/></g>
<g><path style="opacity:1" fill="#83cc07" d="M 136.5,53.5 C 151.167,53.5 165.833,53.5 180.5,53.5C 180.5,54.8333 180.5,56.1667 180.5,57.5C 175.722,58.725 171.389,60.725 167.5,63.5C 161.557,63.7737 156.89,66.107 153.5,70.5C 153.5,70.8333 153.5,71.1667 153.5,71.5C 151.488,70.9862 149.488,70.8195 147.5,71C 147.833,71.3333 148.167,71.6667 148.5,72C 145.67,73.9162 142.67,75.5829 139.5,77C 138.748,77.6708 138.414,78.5041 138.5,79.5C 136.81,79.8564 135.81,80.8564 135.5,82.5C 132.883,83.7859 130.55,85.4525 128.5,87.5C 127.167,87.8333 125.833,88.1667 124.5,88.5C 122.42,89.0444 120.42,89.8777 118.5,91C 118.833,91.3333 119.167,91.6667 119.5,92C 116.08,93.1363 113.413,94.4697 111.5,96C 111.833,96.3333 112.167,96.6667 112.5,97C 111.207,97.49 109.873,97.6567 108.5,97.5C 108.5,98.8333 108.5,100.167 108.5,101.5C 107.167,101.5 105.833,101.5 104.5,101.5C 105.5,106.5 103.5,108.5 98.5,107.5C 97.8333,109.5 97.1667,111.5 96.5,113.5C 95.5,113.5 94.5,113.5 93.5,113.5C 93.5,114.833 93.5,116.167 93.5,117.5C 91.7484,119.246 90.4151,121.246 89.5,123.5C 87.4131,124.585 86.0798,126.251 85.5,128.5C 84.8333,128.5 84.5,128.833 84.5,129.5C 82.5544,130.035 81.5544,131.368 81.5,133.5C 78.1021,136.627 75.4354,140.293 73.5,144.5C 69.0841,147.648 66.4174,151.981 65.5,157.5C 64.8333,158.167 64.1667,158.833 63.5,159.5C 63.631,158.761 63.4643,158.094 63,157.5C 61.0788,161.012 59.4121,164.679 58,168.5C 57,169.167 56,169.833 55,170.5C 54.4543,162.968 53.621,155.468 52.5,148C 53.7324,132.192 54.5657,116.358 55,100.5C 55.5,100 56,99.5 56.5,99C 54.6375,95.8506 53.9709,92.3506 54.5,88.5C 54.5,88.1667 54.5,87.8333 54.5,87.5C 56.5127,80.1447 59.5127,73.1447 63.5,66.5C 63.9321,65.2905 64.5987,64.2905 65.5,63.5C 68.006,62.2504 70.6726,61.5838 73.5,61.5C 73.5,60.5 73.5,59.5 73.5,58.5C 77.3778,55.9871 81.7112,54.6538 86.5,54.5C 103.159,53.8752 119.826,53.5419 136.5,53.5 Z"/></g>
<g><path style="opacity:1" fill="#6d9d25" d="M 73.5,58.5 C 73.5,59.5 73.5,60.5 73.5,61.5C 70.6726,61.5838 68.006,62.2504 65.5,63.5C 65.5,63.1667 65.5,62.8333 65.5,62.5C 67.8911,60.6378 70.5578,59.3045 73.5,58.5 Z"/></g>
<g><path style="opacity:1" fill="#b4f937" d="M 121.5,60.5 C 133.243,60.0645 144.91,60.5645 156.5,62C 148.24,65.7975 140.24,70.1309 132.5,75C 126.987,79.1219 121.32,83.1219 115.5,87C 100.346,100.156 86.5125,114.656 74,130.5C 71.8197,134.871 69.153,138.871 66,142.5C 64.2622,146.548 62.4289,150.548 60.5,154.5C 59.549,155.326 58.549,155.492 57.5,155C 56.8508,151.417 56.5175,147.75 56.5,144C 57.0999,130.504 57.5999,117.004 58,103.5C 58.8052,92.2792 61.4718,81.6126 66,71.5C 70.3337,67.8369 75.1671,65.0036 80.5,63C 94.3301,62.2568 107.997,61.4234 121.5,60.5 Z"/></g>
<g><path style="opacity:1" fill="#9294ac" d="M 330.5,125.5 C 318.621,131.874 306.621,138.04 294.5,144C 290.233,146.745 287.899,150.578 287.5,155.5C 287.443,156.609 287.11,157.609 286.5,158.5C 284.887,158.944 283.72,159.944 283,161.5C 280.977,159.987 281.144,158.654 283.5,157.5C 283.291,156.914 282.957,156.414 282.5,156C 284.039,153.122 285.039,149.955 285.5,146.5C 287.488,145.711 287.821,144.545 286.5,143C 289.13,139.831 292.297,138.665 296,139.5C 296.374,138.584 296.874,137.75 297.5,137C 300.44,136.196 303.107,134.863 305.5,133C 307.81,132.503 310.143,132.337 312.5,132.5C 312.318,130.409 312.652,128.409 313.5,126.5C 323.669,123.406 323.669,121.74 313.5,121.5C 313.231,119.571 313.731,117.905 315,116.5C 317.799,117.198 320.966,117.532 324.5,117.5C 324.827,112.456 324.494,107.456 323.5,102.5C 322.686,104.766 322.186,107.1 322,109.5C 321.506,107.866 321.34,106.199 321.5,104.5C 319.633,104.955 317.8,105.622 316,106.5C 311.789,103.206 306.955,101.539 301.5,101.5C 301.759,98.4349 300.759,95.9349 298.5,94C 298.957,93.586 299.291,93.086 299.5,92.5C 298.047,90.2793 296.881,87.946 296,85.5C 291.667,85.8333 287.333,86.1667 283,86.5C 282.333,85.8333 281.667,85.1667 281,84.5C 280.333,79.8333 280.333,75.1667 281,70.5C 283.8,69.8747 286.634,69.208 289.5,68.5C 284.289,68.0784 279.289,68.0784 274.5,68.5C 267.655,67.7053 261.488,66.7053 256,65.5C 252.455,66.5349 249.288,68.2016 246.5,70.5C 244.181,69.9361 241.847,69.4361 239.5,69C 241.619,68.6582 241.953,67.8249 240.5,66.5C 252.446,63.583 264.612,62.583 277,63.5C 293.789,61.6882 310.622,61.1882 327.5,62C 328.288,65.0757 328.788,68.2423 329,71.5C 329.193,89.5435 329.693,107.543 330.5,125.5 Z"/></g>
<g><path style="opacity:1" fill="#c0c6d8" d="M 637.5,655.5 C 641.537,639.077 644.037,622.411 645,605.5C 647.766,527.516 649.433,449.516 650,371.5C 648.961,370.29 647.794,369.29 646.5,368.5C 645.791,367.596 644.791,367.263 643.5,367.5C 640.898,365.549 638.064,365.216 635,366.5C 631.137,370.223 626.637,374.889 621.5,380.5C 606.59,391.572 589.924,398.739 571.5,402C 533.646,404.101 495.813,403.934 458,401.5C 441.802,403.198 425.635,402.531 409.5,399.5C 412.96,398.63 416.46,397.963 420,397.5C 421.908,397.285 423.074,396.285 423.5,394.5C 430.978,385.822 429.978,378.322 420.5,372C 412.91,370.047 407.41,372.547 404,379.5C 403.502,382.817 403.335,386.15 403.5,389.5C 403.67,390.822 403.337,391.989 402.5,393C 403.5,394 404.5,395 405.5,396C 403.862,396.242 402.362,397.075 401,398.5C 400.739,367.315 399.906,336.148 398.5,305C 398.833,298.167 399.167,291.333 399.5,284.5C 400.141,285.993 401.141,286.993 402.5,287.5C 408.408,292.374 414.574,292.707 421,288.5C 428.123,276.918 425.123,269.585 412,266.5C 406.829,266.224 402.996,268.224 400.5,272.5C 398.692,264.56 397.859,256.227 398,247.5C 395.893,245.513 393.393,244.18 390.5,243.5C 387.833,241.167 385.167,238.833 382.5,236.5C 382.389,235.883 382.056,235.383 381.5,235C 385.198,232.929 388.864,230.763 392.5,228.5C 396.534,223.799 400.867,219.466 405.5,215.5C 404.652,213.591 404.318,211.591 404.5,209.5C 405.984,206.416 405.818,203.416 404,200.5C 391.621,188.286 378.788,176.619 365.5,165.5C 365.586,164.504 365.252,163.671 364.5,163C 369.877,161.25 375.21,159.25 380.5,157C 384.824,153.913 389.491,151.413 394.5,149.5C 395.248,147.668 396.248,146.001 397.5,144.5C 397.167,143.833 396.833,143.167 396.5,142.5C 397.229,127.524 398.062,112.524 399,97.5C 399.308,96.6919 399.808,96.0253 400.5,95.5C 401.622,96.6302 402.956,97.2969 404.5,97.5C 417.555,101.892 423.721,97.2253 423,83.5C 418.675,77.0592 412.842,75.2259 405.5,78C 404.672,79.9923 403.339,81.4923 401.5,82.5C 400.21,83.0577 399.377,84.0577 399,85.5C 397.937,78.4986 397.103,71.6653 396.5,65C 397.931,64.5348 399.097,63.7014 400,62.5C 419.77,63.2356 439.603,63.9022 459.5,64.5C 465.63,62.9056 471.63,63.2389 477.5,65.5C 479.792,64.6906 481.959,64.3573 484,64.5C 495.018,68.1939 506.185,71.1939 517.5,73.5C 517.5,74.5 517.5,75.5 517.5,76.5C 522.641,77.0241 527.641,78.1907 532.5,80C 539.733,83.4642 547.066,86.6309 554.5,89.5C 557.671,91.7196 560.671,94.0529 563.5,96.5C 568.272,97.7657 572.106,100.432 575,104.5C 575.414,104.043 575.914,103.709 576.5,103.5C 586.438,109.249 594.938,117.249 602,127.5C 606.95,132.622 611.783,137.956 616.5,143.5C 617.369,147.204 619.536,149.871 623,151.5C 626.074,159.371 630.241,166.704 635.5,173.5C 643.677,190.198 650.177,207.531 655,225.5C 657.924,239.674 659.091,254.007 658.5,268.5C 658.48,374.197 658.48,479.697 658.5,585C 657.68,594.423 657.18,603.923 657,613.5C 657.14,626.486 654.473,638.819 649,650.5C 645.529,652.368 642.863,655.035 641,658.5C 640.395,656.519 639.395,656.185 638,657.5C 637.536,656.906 637.369,656.239 637.5,655.5 Z"/></g>
<g><path style="opacity:1" fill="#74a61a" d="M 167.5,63.5 C 164.001,65.7505 160.335,67.7505 156.5,69.5C 155.391,69.5569 154.391,69.8902 153.5,70.5C 156.89,66.107 161.557,63.7737 167.5,63.5 Z"/></g>
<g><path style="opacity:1" fill="#9596b3" d="M 286.5,158.5 C 286.687,160.564 287.187,162.564 288,164.5C 292.764,169.763 298.264,174.097 304.5,177.5C 307.194,182.194 310.861,185.861 315.5,188.5C 316.362,189.766 317.029,191.099 317.5,192.5C 315.29,196.769 314.123,196.436 314,191.5C 313.83,193.715 313.163,195.715 312,197.5C 306.333,197.167 300.667,196.833 295,196.5C 293.266,197.249 291.433,197.749 289.5,198C 288.789,199.255 287.956,200.421 287,201.5C 286.23,200.402 285.397,200.402 284.5,201.5C 281.805,195.423 279.639,189.089 278,182.5C 272.242,173.073 266.908,163.407 262,153.5C 252.953,143.15 242.953,133.816 232,125.5C 208.085,111.857 183.251,109.857 157.5,119.5C 157.119,118.069 156.119,117.236 154.5,117C 149.043,116.566 144.209,116.732 140,117.5C 138.129,116.003 137.129,114.003 137,111.5C 136.667,112.167 136.333,112.833 136,113.5C 135.722,112.584 135.222,111.918 134.5,111.5C 159.334,92.7524 187,79.2524 217.5,71C 225.278,69.9266 232.945,68.4266 240.5,66.5C 241.953,67.8249 241.619,68.6582 239.5,69C 241.847,69.4361 244.181,69.9361 246.5,70.5C 249.288,68.2016 252.455,66.5349 256,65.5C 261.488,66.7053 267.655,67.7053 274.5,68.5C 279.289,68.0784 284.289,68.0784 289.5,68.5C 286.634,69.208 283.8,69.8747 281,70.5C 280.333,75.1667 280.333,79.8333 281,84.5C 281.667,85.1667 282.333,85.8333 283,86.5C 287.333,86.1667 291.667,85.8333 296,85.5C 296.881,87.946 298.047,90.2793 299.5,92.5C 299.291,93.086 298.957,93.586 298.5,94C 300.759,95.9349 301.759,98.4349 301.5,101.5C 306.955,101.539 311.789,103.206 316,106.5C 317.8,105.622 319.633,104.955 321.5,104.5C 321.34,106.199 321.506,107.866 322,109.5C 322.186,107.1 322.686,104.766 323.5,102.5C 324.494,107.456 324.827,112.456 324.5,117.5C 320.966,117.532 317.799,117.198 315,116.5C 313.731,117.905 313.231,119.571 313.5,121.5C 323.669,121.74 323.669,123.406 313.5,126.5C 312.652,128.409 312.318,130.409 312.5,132.5C 310.143,132.337 307.81,132.503 305.5,133C 303.107,134.863 300.44,136.196 297.5,137C 296.874,137.75 296.374,138.584 296,139.5C 292.297,138.665 289.13,139.831 286.5,143C 287.821,144.545 287.488,145.711 285.5,146.5C 285.039,149.955 284.039,153.122 282.5,156C 282.957,156.414 283.291,156.914 283.5,157.5C 281.144,158.654 280.977,159.987 283,161.5C 283.72,159.944 284.887,158.944 286.5,158.5 Z"/></g>
<g><path style="opacity:1" fill="#83ca08" d="M 546.5,53.5 C 565.833,53.5 585.167,53.5 604.5,53.5C 605.167,53.5 605.833,53.5 606.5,53.5C 626.011,54.2475 645.677,55.0808 665.5,56C 666.056,56.3826 666.389,56.8826 666.5,57.5C 667.814,69.9434 668.481,82.6101 668.5,95.5C 668.356,113.173 668.022,130.84 667.5,148.5C 667.666,157.506 667.5,166.506 667,175.5C 666.667,175.833 666.333,176.167 666,176.5C 664.968,174.973 663.801,173.64 662.5,172.5C 661.227,170.287 660.227,167.954 659.5,165.5C 659.008,163.181 658.008,161.181 656.5,159.5C 657.211,156.136 656.044,153.803 653,152.5C 651.438,150.043 650.438,147.376 650,144.5C 648.729,143.117 647.229,142.117 645.5,141.5C 645.226,139.019 643.893,137.353 641.5,136.5C 638.681,130.515 634.681,125.515 629.5,121.5C 628.468,119.622 627.134,117.955 625.5,116.5C 624.243,113.573 622.243,111.239 619.5,109.5C 618.5,109.167 617.833,108.5 617.5,107.5C 616.5,106.167 615.5,104.833 614.5,103.5C 613.544,101.484 612.21,99.6508 610.5,98C 609.255,97.2086 607.922,96.7086 606.5,96.5C 605.415,94.4131 603.749,93.0798 601.5,92.5C 599.596,92.2624 598.262,91.2624 597.5,89.5C 596.789,86.6233 594.956,84.9566 592,84.5C 591.383,83.5509 591.549,82.7175 592.5,82C 587.602,79.6038 582.602,77.4371 577.5,75.5C 573.9,73.8899 570.566,71.8899 567.5,69.5C 566.748,67.8997 565.748,66.3997 564.5,65C 559.8,63.4423 555.467,61.2756 551.5,58.5C 550.914,58.7093 550.414,59.0426 550,59.5C 547.54,58.245 546.373,56.245 546.5,53.5 Z"/></g>
<g><path style="opacity:1" fill="#b4f938" d="M 569.5,61.5 C 599.807,63.1019 630.141,63.7686 660.5,63.5C 660.667,92.5019 660.5,121.502 660,150.5C 641.323,122.49 618.823,97.99 592.5,77C 584.357,72.2824 576.69,67.1157 569.5,61.5 Z"/></g>
<g><path style="opacity:1" fill="#4a6d15" d="M 65.5,62.5 C 65.5,62.8333 65.5,63.1667 65.5,63.5C 64.5987,64.2905 63.9321,65.2905 63.5,66.5C 61.8712,67.6253 60.3712,68.9586 59,70.5C 58.3299,73.1739 57.1632,75.5073 55.5,77.5C 56.4602,70.8808 59.7936,65.8808 65.5,62.5 Z"/></g>
<g><path style="opacity:1" fill="#80b51d" d="M 666.5,57.5 C 667.5,57.5 668.5,57.5 669.5,57.5C 669.5,82.8333 669.5,108.167 669.5,133.5C 669.5,133.833 669.5,134.167 669.5,134.5C 668.833,139.167 668.167,143.833 667.5,148.5C 668.022,130.84 668.356,113.173 668.5,95.5C 668.481,82.6101 667.814,69.9434 666.5,57.5 Z"/></g>
<g><path style="opacity:1" fill="#75ac15" d="M 153.5,71.5 C 151.852,72.9265 149.852,73.7599 147.5,74C 146.29,75.0391 145.29,76.2058 144.5,77.5C 144.167,77.5 143.833,77.5 143.5,77.5C 141.716,77.8925 140.05,78.5592 138.5,79.5C 138.414,78.5041 138.748,77.6708 139.5,77C 142.67,75.5829 145.67,73.9162 148.5,72C 148.167,71.6667 147.833,71.3333 147.5,71C 149.488,70.8195 151.488,70.9862 153.5,71.5 Z"/></g>
<g><path style="opacity:1" fill="#172808" d="M 156.5,69.5 C 156.297,71.0443 155.63,72.3777 154.5,73.5C 151.035,74.6516 147.702,75.985 144.5,77.5C 145.29,76.2058 146.29,75.0391 147.5,74C 149.852,73.7599 151.852,72.9265 153.5,71.5C 153.5,71.1667 153.5,70.8333 153.5,70.5C 154.391,69.8902 155.391,69.5569 156.5,69.5 Z"/></g>
<g><path style="opacity:1" fill="#628c20" d="M 577.5,75.5 C 582.602,77.4371 587.602,79.6038 592.5,82C 591.549,82.7175 591.383,83.5509 592,84.5C 594.956,84.9566 596.789,86.6233 597.5,89.5C 590.807,84.7965 584.14,80.1298 577.5,75.5 Z"/></g>
<g><path style="opacity:1" fill="#7bb11a" d="M 63.5,66.5 C 59.5127,73.1447 56.5127,80.1447 54.5,87.5C 54.5,84.8333 54.5,82.1667 54.5,79.5C 54.3284,78.5084 54.6618,77.8417 55.5,77.5C 57.1632,75.5073 58.3299,73.1739 59,70.5C 60.3712,68.9586 61.8712,67.6253 63.5,66.5 Z"/></g>
<g><path style="opacity:1" fill="#3d6605" d="M 143.5,77.5 C 141.5,79.1667 139.5,80.8333 137.5,82.5C 136.833,82.5 136.167,82.5 135.5,82.5C 135.81,80.8564 136.81,79.8564 138.5,79.5C 140.05,78.5592 141.716,77.8925 143.5,77.5 Z"/></g>
<g><path style="opacity:1" fill="#4e4e4e" d="M 2.5,72.5 C 2.69751,77.7498 2.03084,82.7498 0.5,87.5C 0.444348,82.2688 1.11101,77.2688 2.5,72.5 Z"/></g>
<g><path style="opacity:1" fill="#0e1903" d="M 135.5,82.5 C 136.167,82.5 136.833,82.5 137.5,82.5C 134.404,85.1461 131.404,87.9795 128.5,91C 126.866,91.4935 125.199,91.6602 123.5,91.5C 125.349,90.407 127.016,89.0737 128.5,87.5C 130.55,85.4525 132.883,83.7859 135.5,82.5 Z"/></g>
<g><path style="opacity:1" fill="#315805" d="M 128.5,87.5 C 127.016,89.0737 125.349,90.407 123.5,91.5C 123.167,91.5 122.833,91.5 122.5,91.5C 122.782,90.2223 123.449,89.2223 124.5,88.5C 125.833,88.1667 127.167,87.8333 128.5,87.5 Z"/></g>
<g><path style="opacity:1" fill="#456d05" d="M 54.5,79.5 C 54.5,82.1667 54.5,84.8333 54.5,87.5C 54.5,87.8333 54.5,88.1667 54.5,88.5C 53.8333,90.1667 53.1667,91.8333 52.5,93.5C 52.2291,88.5662 52.8958,83.8996 54.5,79.5 Z"/></g>
<g><path style="opacity:1" fill="#51811e" d="M 601.5,92.5 C 603.749,93.0798 605.415,94.4131 606.5,96.5C 604.251,95.9202 602.585,94.5869 601.5,92.5 Z"/></g>
<g><path style="opacity:1" fill="#1e3a05" d="M 120.5,93.5 C 119.415,95.5869 117.749,96.9202 115.5,97.5C 116.585,95.4131 118.251,94.0798 120.5,93.5 Z"/></g>
<g><path style="opacity:1" fill="#737692" d="M 313.5,54.5 C 320.863,54.1694 328.197,54.5027 335.5,55.5C 335.931,56.2935 336.265,57.1268 336.5,58C 336.589,79.4413 336.423,100.941 336,122.5C 335.072,125.035 333.238,126.035 330.5,125.5C 329.693,107.543 329.193,89.5435 329,71.5C 328.788,68.2423 328.288,65.0757 327.5,62C 310.622,61.1882 293.789,61.6882 277,63.5C 264.612,62.583 252.446,63.583 240.5,66.5C 232.945,68.4266 225.278,69.9266 217.5,71C 187,79.2524 159.334,92.7524 134.5,111.5C 131.357,113.242 128.357,115.242 125.5,117.5C 118.618,125.606 111.285,133.272 103.5,140.5C 94.6033,153.709 86.6033,167.376 79.5,181.5C 79.5858,180.504 79.2524,179.671 78.5,179C 81.4328,176.649 81.0994,175.649 77.5,176C 75.3066,178.541 73.4733,181.375 72,184.5C 70.8333,189 69.6667,193.5 68.5,198C 69.9455,200.493 69.2789,202.327 66.5,203.5C 65.2889,204.72 65.2889,205.887 66.5,207C 63.5178,209.191 63.1845,211.524 65.5,214C 62.9557,215.563 62.9557,217.063 65.5,218.5C 65.1543,219.696 64.6543,219.696 64,218.5C 63.6964,220.441 62.8631,222.107 61.5,223.5C 62.6991,226.995 61.3658,228.995 57.5,229.5C 71.8795,152.622 115.546,100.122 188.5,72C 211.983,62.8035 236.316,57.6368 261.5,56.5C 279.034,56.9177 296.367,56.2511 313.5,54.5 Z"/></g>
<g><path style="opacity:1" fill="#3d3f41" d="M 311.5,77.5 C 314.187,77.3359 316.854,77.5026 319.5,78C 328.606,82.9846 329.939,89.6513 323.5,98C 319.712,101.186 315.379,102.186 310.5,101C 309.347,99.117 307.681,98.2837 305.5,98.5C 302.736,92.7357 302.903,87.0691 306,81.5C 307.812,80.0229 309.645,78.6896 311.5,77.5 Z"/></g>
<g><path style="opacity:1" fill="#a6a5b1" d="M 309.5,80.5 C 315.989,80.1563 317.989,82.9896 315.5,89C 309.086,91.5925 306.586,89.4259 308,82.5C 308.717,81.9558 309.217,81.2891 309.5,80.5 Z"/></g>
<g><path style="opacity:1" fill="#7ab41c" d="M 124.5,88.5 C 123.449,89.2223 122.782,90.2223 122.5,91.5C 121.5,91.8333 120.833,92.5 120.5,93.5C 118.251,94.0798 116.585,95.4131 115.5,97.5C 112.19,99.1464 109.523,101.48 107.5,104.5C 103.473,109.194 99.1396,113.527 94.5,117.5C 94.1667,117.5 93.8333,117.5 93.5,117.5C 93.5,116.167 93.5,114.833 93.5,113.5C 94.5,113.5 95.5,113.5 96.5,113.5C 97.1667,111.5 97.8333,109.5 98.5,107.5C 103.5,108.5 105.5,106.5 104.5,101.5C 105.833,101.5 107.167,101.5 108.5,101.5C 108.5,100.167 108.5,98.8333 108.5,97.5C 109.873,97.6567 111.207,97.49 112.5,97C 112.167,96.6667 111.833,96.3333 111.5,96C 113.413,94.4697 116.08,93.1363 119.5,92C 119.167,91.6667 118.833,91.3333 118.5,91C 120.42,89.8777 122.42,89.0444 124.5,88.5 Z"/></g>
<g><path style="opacity:1" fill="#70a627" d="M 606.5,96.5 C 607.922,96.7086 609.255,97.2086 610.5,98C 612.21,99.6508 613.544,101.484 614.5,103.5C 613.5,102.833 612.5,102.167 611.5,101.5C 609.167,100.5 607.5,98.8333 606.5,96.5 Z"/></g>
<g><path style="opacity:1" fill="#2b4c04" d="M 115.5,97.5 C 113.451,100.55 110.784,102.883 107.5,104.5C 109.523,101.48 112.19,99.1464 115.5,97.5 Z"/></g>
<g><path style="opacity:1" fill="#1d3f07" d="M 611.5,101.5 C 612.5,102.167 613.5,102.833 614.5,103.5C 615.5,104.833 616.5,106.167 617.5,107.5C 614.5,106.5 612.5,104.5 611.5,101.5 Z"/></g>
<g><path style="opacity:1" fill="#82bb18" d="M 54.5,88.5 C 53.9709,92.3506 54.6375,95.8506 56.5,99C 56,99.5 55.5,100 55,100.5C 54.5657,116.358 53.7324,132.192 52.5,148C 53.621,155.468 54.4543,162.968 55,170.5C 56,169.833 57,169.167 58,168.5C 59.4121,164.679 61.0788,161.012 63,157.5C 63.4643,158.094 63.631,158.761 63.5,159.5C 63.5,160.167 63.5,160.833 63.5,161.5C 60.634,166.569 58.3006,171.902 56.5,177.5C 55.5041,177.586 54.6708,177.252 54,176.5C 53.1473,172.531 52.4807,168.531 52,164.5C 51.5072,140.829 51.6738,117.163 52.5,93.5C 53.1667,91.8333 53.8333,90.1667 54.5,88.5 Z"/></g>
<g><path style="opacity:1" fill="#234207" d="M 619.5,109.5 C 622.243,111.239 624.243,113.573 625.5,116.5C 622.757,114.761 620.757,112.427 619.5,109.5 Z"/></g>
<g><path style="opacity:1" fill="#294b05" d="M 93.5,117.5 C 93.8333,117.5 94.1667,117.5 94.5,117.5C 93.5806,120.089 91.914,122.089 89.5,123.5C 90.4151,121.246 91.7484,119.246 93.5,117.5 Z"/></g>
<g><path style="opacity:1" fill="#2b4906" d="M 89.5,123.5 C 88.9202,125.749 87.5869,127.415 85.5,128.5C 86.0798,126.251 87.4131,124.585 89.5,123.5 Z"/></g>
<g><path style="opacity:1" fill="#2c4e08" d="M 629.5,121.5 C 634.681,125.515 638.681,130.515 641.5,136.5C 636.781,132.056 632.781,127.056 629.5,121.5 Z"/></g>
<g><path style="opacity:1" fill="#152106" d="M 85.5,128.5 C 85.3015,130.96 84.6348,133.293 83.5,135.5C 79.5188,137.92 76.1855,140.92 73.5,144.5C 75.4354,140.293 78.1021,136.627 81.5,133.5C 82.9744,132.564 83.9744,131.23 84.5,129.5C 84.5,128.833 84.8333,128.5 85.5,128.5 Z"/></g>
<g><path style="opacity:1" fill="#355e09" d="M 84.5,129.5 C 83.9744,131.23 82.9744,132.564 81.5,133.5C 81.5544,131.368 82.5544,130.035 84.5,129.5 Z"/></g>
<g><path style="opacity:1" fill="#538116" d="M 641.5,136.5 C 643.893,137.353 645.226,139.019 645.5,141.5C 643.003,140.871 641.67,139.204 641.5,136.5 Z"/></g>
<g><path style="opacity:1" fill="#3a5a06" d="M 52.5,93.5 C 51.6738,117.163 51.5072,140.829 52,164.5C 52.4807,168.531 53.1473,172.531 54,176.5C 54.6708,177.252 55.5041,177.586 56.5,177.5C 55.3063,180.018 54.1396,180.018 53,177.5C 52.0071,173.558 51.3404,169.558 51,165.5C 50.0587,141.31 50.5587,117.31 52.5,93.5 Z"/></g>
<g><path style="opacity:1" fill="#689919" d="M 645.5,141.5 C 647.229,142.117 648.729,143.117 650,144.5C 650.438,147.376 651.438,150.043 653,152.5C 656.044,153.803 657.211,156.136 656.5,159.5C 654.423,156.832 652.257,154.165 650,151.5C 648.726,148.061 647.226,144.728 645.5,141.5 Z"/></g>
<g><path style="opacity:1" fill="#679426" d="M 73.5,144.5 C 70.5806,148.671 67.914,153.004 65.5,157.5C 66.4174,151.981 69.0841,147.648 73.5,144.5 Z"/></g>
<g><path style="opacity:1" fill="#3b5a0f" d="M 669.5,150.5 C 669.666,160.839 669.5,171.172 669,181.5C 667.421,182.8 666.255,182.466 665.5,180.5C 666.5,180.5 667.5,180.5 668.5,180.5C 668.173,170.319 668.506,160.319 669.5,150.5 Z"/></g>
<g><path style="opacity:1" fill="#6f9c23" d="M 669.5,134.5 C 669.5,139.833 669.5,145.167 669.5,150.5C 668.506,160.319 668.173,170.319 668.5,180.5C 667.5,180.5 666.5,180.5 665.5,180.5C 663.94,178.046 662.94,175.38 662.5,172.5C 663.801,173.64 664.968,174.973 666,176.5C 666.333,176.167 666.667,175.833 667,175.5C 667.5,166.506 667.666,157.506 667.5,148.5C 668.167,143.833 668.833,139.167 669.5,134.5 Z"/></g>
<g><path style="opacity:1" fill="#456513" d="M 65.5,157.5 C 65.7709,159.38 65.1042,160.713 63.5,161.5C 63.5,160.833 63.5,160.167 63.5,159.5C 64.1667,158.833 64.8333,158.167 65.5,157.5 Z"/></g>
<g><path style="opacity:1" fill="#496c10" d="M 656.5,159.5 C 658.008,161.181 659.008,163.181 659.5,165.5C 657.461,164.089 656.461,162.089 656.5,159.5 Z"/></g>
<g><path style="opacity:1" fill="#737692" d="M 284.5,201.5 C 292.524,239.244 292.191,276.911 283.5,314.5C 277.834,327.966 271.667,341.299 265,354.5C 255.2,368.631 243.7,381.131 230.5,392C 222.986,396.258 215.319,400.258 207.5,404C 199.195,405.263 191.028,406.763 183,408.5C 173.727,408.112 164.56,406.945 155.5,405C 134.539,396.127 117.872,382.293 105.5,363.5C 83.9465,326.916 75.4465,287.25 80,244.5C 82.6647,223.654 88.1647,203.654 96.5,184.5C 101.34,175.741 106.34,167.074 111.5,158.5C 118.677,150.159 126.01,141.992 133.5,134C 141.062,128.388 149.062,123.555 157.5,119.5C 183.251,109.857 208.085,111.857 232,125.5C 242.953,133.816 252.953,143.15 262,153.5C 266.908,163.407 272.242,173.073 278,182.5C 279.639,189.089 281.805,195.423 284.5,201.5 Z"/></g>
<g><path style="opacity:1" fill="#030406" d="M 181.5,120.5 C 210.831,120.417 234.664,131.75 253,154.5C 273.878,183.982 284.045,216.982 283.5,253.5C 283.841,290.859 274.008,325.192 254,356.5C 238.467,380.041 216.967,394.874 189.5,401C 173.704,402.184 158.704,399.184 144.5,392C 120.058,374.967 103.558,352.134 95,323.5C 79.8236,269.584 85.8236,218.25 113,169.5C 124.698,151.134 140.198,136.967 159.5,127C 166.851,124.467 174.184,122.301 181.5,120.5 Z"/></g>
<g><path style="opacity:1" fill="#9aa6ad" d="M 183.5,134.5 C 195.58,133.855 206.914,136.355 217.5,142C 240.041,157.521 254.875,178.687 262,205.5C 274.76,253.341 269.427,299.008 246,342.5C 238.671,354.003 229.838,364.17 219.5,373C 193.879,391.294 168.546,390.96 143.5,372C 127.461,357.279 116.294,339.445 110,318.5C 95.7911,268.355 101.458,220.688 127,175.5C 137.104,158.396 151.271,145.896 169.5,138C 174.278,136.751 178.945,135.584 183.5,134.5 Z"/></g>
<g><path style="opacity:1" fill="#030202" d="M 177.5,164.5 C 196.458,162.319 212.625,167.985 226,181.5C 242.443,201.48 251.443,224.48 253,250.5C 255.375,283.678 247.042,313.678 228,340.5C 200.647,368.497 173.313,368.497 146,340.5C 132.537,322.795 124.537,302.795 122,280.5C 118.217,248.07 124.884,218.07 142,190.5C 151.235,178.072 163.068,169.405 177.5,164.5 Z"/></g>
<g><path style="opacity:1" fill="#737791" d="M 287.5,155.5 C 291.199,157.019 294.532,159.186 297.5,162C 308.677,173.843 320.51,185.009 333,195.5C 334.016,198.626 333.183,200.959 330.5,202.5C 325.622,199.892 321.289,196.559 317.5,192.5C 317.029,191.099 316.362,189.766 315.5,188.5C 310.861,185.861 307.194,182.194 304.5,177.5C 298.264,174.097 292.764,169.763 288,164.5C 287.187,162.564 286.687,160.564 286.5,158.5C 287.11,157.609 287.443,156.609 287.5,155.5 Z"/></g>
<g><path style="opacity:1" fill="#9ba7ac" d="M 225.5,285.5 C 203.262,274.1 183.762,259.1 167,240.5C 162.133,233.491 157.967,226.157 154.5,218.5C 157.309,212.239 161.142,206.572 166,201.5C 168.861,199.306 171.361,196.806 173.5,194C 184.73,185.633 195.73,186.133 206.5,195.5C 214.007,204.205 219.173,214.205 222,225.5C 222.991,228.66 224.824,231.16 227.5,233C 226.941,233.725 226.608,234.558 226.5,235.5C 229.189,249.262 229.689,263.262 228,277.5C 227.218,280.31 226.384,282.977 225.5,285.5 Z"/></g>
<g><path style="opacity:1" fill="#7f8c8e" d="M 234.5,237.5 C 235.312,251.15 235.645,264.817 235.5,278.5C 234.706,281.802 234.04,285.135 233.5,288.5C 230.169,288.982 227.503,287.982 225.5,285.5C 226.384,282.977 227.218,280.31 228,277.5C 229.689,263.262 229.189,249.262 226.5,235.5C 226.608,234.558 226.941,233.725 227.5,233C 224.824,231.16 222.991,228.66 222,225.5C 219.173,214.205 214.007,204.205 206.5,195.5C 195.73,186.133 184.73,185.633 173.5,194C 171.361,196.806 168.861,199.306 166,201.5C 161.142,206.572 157.309,212.239 154.5,218.5C 149.245,212.62 149.412,206.62 155,200.5C 161.677,192.159 169.844,185.659 179.5,181C 188.791,178.269 197.457,179.602 205.5,185C 221.81,198.815 231.477,216.315 234.5,237.5 Z"/></g>
<g><path style="opacity:1" fill="#9496b0" d="M 134.5,111.5 C 135.222,111.918 135.722,112.584 136,113.5C 136.333,112.833 136.667,112.167 137,111.5C 137.129,114.003 138.129,116.003 140,117.5C 144.209,116.732 149.043,116.566 154.5,117C 156.119,117.236 157.119,118.069 157.5,119.5C 149.062,123.555 141.062,128.388 133.5,134C 126.01,141.992 118.677,150.159 111.5,158.5C 106.34,167.074 101.34,175.741 96.5,184.5C 88.1647,203.654 82.6647,223.654 80,244.5C 75.4465,287.25 83.9465,326.916 105.5,363.5C 104.778,363.918 104.278,364.584 104,365.5C 102.87,364.886 101.537,364.886 100,365.5C 99.1667,365.167 98.3333,364.833 97.5,364.5C 97.8457,363.304 98.3457,363.304 99,364.5C 102.054,362.877 101.554,362.21 97.5,362.5C 97.33,361.178 97.6634,360.011 98.5,359C 96.236,358.764 94.0693,358.264 92,357.5C 91.2691,351.95 89.9358,346.616 88,341.5C 83.6667,341.833 79.3333,342.167 75,342.5C 74.3333,341.833 73.6667,341.167 73,340.5C 72.0845,325.454 72.4179,310.454 74,295.5C 74.4226,296.956 75.2559,297.456 76.5,297C 75.6634,295.989 75.33,294.822 75.5,293.5C 74.5,293.5 73.5,293.5 72.5,293.5C 72.1718,288.125 72.5052,282.792 73.5,277.5C 75.4554,276.72 76.4554,275.22 76.5,273C 75.4218,269.187 74.4218,265.354 73.5,261.5C 72.914,261.709 72.414,262.043 72,262.5C 71.3333,299.167 71.3333,335.833 72,372.5C 73.1628,425.694 73.9962,479.028 74.5,532.5C 78.5516,535.014 78.2183,536.681 73.5,537.5C 73.5,536.167 73.5,534.833 73.5,533.5C 72.1779,533.33 71.0113,533.663 70,534.5C 69.5034,536.81 69.3367,539.143 69.5,541.5C 70.552,541.351 71.552,541.517 72.5,542C 71.536,543.725 70.8693,545.559 70.5,547.5C 67.7691,552.028 64.7691,556.362 61.5,560.5C 60.5003,538.177 60.167,515.843 60.5,493.5C 60.9311,413.496 61.7644,333.496 63,253.5C 63.348,242.246 64.5147,231.079 66.5,220C 68.8779,210.196 72.0445,200.696 76,191.5C 76.7203,189.888 76.5536,188.388 75.5,187C 76.7491,185.02 78.0824,183.187 79.5,181.5C 86.6033,167.376 94.6033,153.709 103.5,140.5C 111.285,133.272 118.618,125.606 125.5,117.5C 128.357,115.242 131.357,113.242 134.5,111.5 Z"/></g>
<g><path style="opacity:1" fill="#a9abb6" d="M 404.5,209.5 C 404.318,211.591 404.652,213.591 405.5,215.5C 400.867,219.466 396.534,223.799 392.5,228.5C 388.864,230.763 385.198,232.929 381.5,235C 382.056,235.383 382.389,235.883 382.5,236.5C 377.501,235.051 376.001,232.051 378,227.5C 384.074,222.214 390.241,217.048 396.5,212C 399.135,210.976 401.802,210.143 404.5,209.5 Z"/></g>
<g><path style="opacity:1" fill="#abacb8" d="M 642.5,665.5 C 639.833,665.5 637.167,665.5 634.5,665.5C 634.5,663.5 634.5,661.5 634.5,659.5C 635.512,658.128 636.512,656.795 637.5,655.5C 637.369,656.239 637.536,656.906 638,657.5C 639.395,656.185 640.395,656.519 641,658.5C 642.863,655.035 645.529,652.368 649,650.5C 654.473,638.819 657.14,626.486 657,613.5C 657.18,603.923 657.68,594.423 658.5,585C 658.48,479.697 658.48,374.197 658.5,268.5C 659.091,254.007 657.924,239.674 655,225.5C 650.177,207.531 643.677,190.198 635.5,173.5C 630.241,166.704 626.074,159.371 623,151.5C 619.536,149.871 617.369,147.204 616.5,143.5C 611.783,137.956 606.95,132.622 602,127.5C 594.938,117.249 586.438,109.249 576.5,103.5C 575.914,103.709 575.414,104.043 575,104.5C 572.106,100.432 568.272,97.7657 563.5,96.5C 560.671,94.0529 557.671,91.7196 554.5,89.5C 547.066,86.6309 539.733,83.4642 532.5,80C 527.641,78.1907 522.641,77.0241 517.5,76.5C 517.5,75.5 517.5,74.5 517.5,73.5C 506.185,71.1939 495.018,68.1939 484,64.5C 481.959,64.3573 479.792,64.6906 477.5,65.5C 471.63,63.2389 465.63,62.9056 459.5,64.5C 439.603,63.9022 419.77,63.2356 400,62.5C 399.097,63.7014 397.931,64.5348 396.5,65C 397.103,71.6653 397.937,78.4986 399,85.5C 399.377,84.0577 400.21,83.0577 401.5,82.5C 399.635,88.1348 400.635,93.1348 404.5,97.5C 402.956,97.2969 401.622,96.6302 400.5,95.5C 399.808,96.0253 399.308,96.6919 399,97.5C 398.062,112.524 397.229,127.524 396.5,142.5C 396.833,143.167 397.167,143.833 397.5,144.5C 396.248,146.001 395.248,147.668 394.5,149.5C 389.491,151.413 384.824,153.913 380.5,157C 375.21,159.25 369.877,161.25 364.5,163C 365.252,163.671 365.586,164.504 365.5,165.5C 360.374,163.162 359.374,159.662 362.5,155C 370.878,150.486 379.544,146.653 388.5,143.5C 388.333,115.165 388.5,86.8314 389,58.5C 389.374,57.5838 389.874,56.7504 390.5,56C 396.052,53.9318 401.885,53.0984 408,53.5C 433.195,54.1557 458.361,55.3224 483.5,57C 495.643,59.036 507.643,61.7026 519.5,65C 528.754,68.8626 538.088,72.5293 547.5,76C 562.642,83.7965 577.308,92.4632 591.5,102C 626.734,134.295 650.901,173.462 664,219.5C 666.412,232.032 667.746,244.699 668,257.5C 667.272,357.508 667.605,457.508 669,557.5C 667.342,578.79 666.342,600.123 666,621.5C 665.322,628.879 664.322,636.213 663,643.5C 659.715,654.281 652.881,661.614 642.5,665.5 Z"/></g>
<g><path style="opacity:1" fill="#3f4044" d="M 404.5,97.5 C 400.635,93.1348 399.635,88.1348 401.5,82.5C 403.339,81.4923 404.672,79.9923 405.5,78C 412.842,75.2259 418.675,77.0592 423,83.5C 423.721,97.2253 417.555,101.892 404.5,97.5 Z"/></g>
<g><path style="opacity:1" fill="#a09fa7" d="M 412.5,80.5 C 414.981,80.3234 416.814,81.3234 418,83.5C 417.601,88.6914 415.267,89.6914 411,86.5C 410.252,84.1599 410.752,82.1599 412.5,80.5 Z"/></g>
<g><path style="opacity:1" fill="#747796" d="M 79.5,181.5 C 78.0824,183.187 76.7491,185.02 75.5,187C 76.5536,188.388 76.7203,189.888 76,191.5C 72.0445,200.696 68.8779,210.196 66.5,220C 64.5147,231.079 63.348,242.246 63,253.5C 61.7644,333.496 60.9311,413.496 60.5,493.5C 59.6683,511.996 59.1683,530.662 59,549.5C 58.8295,544.136 58.3295,538.802 57.5,533.5C 56.6816,536.107 56.1816,538.774 56,541.5C 55.5048,533.454 56.0048,525.454 57.5,517.5C 57.3333,514.833 57.1667,512.167 57,509.5C 56.6667,513.167 56.3333,516.833 56,520.5C 54.3969,512.739 54.5636,505.073 56.5,497.5C 55.8997,486.313 55.5664,475.146 55.5,464C 55.9444,462.238 56.4444,462.405 57,464.5C 57.7805,459.706 57.2805,455.039 55.5,450.5C 57.4608,445.95 58.4608,441.116 58.5,436C 58.3333,432.833 58.1667,429.667 58,426.5C 57,425.5 56,424.5 55,423.5C 54.8333,421.833 54.6667,420.167 54.5,418.5C 56.3755,411.287 57.3755,403.954 57.5,396.5C 55.7374,348.29 55.0708,299.957 55.5,251.5C 55.5,247.167 55.5,242.833 55.5,238.5C 56.0885,235.39 56.7552,232.39 57.5,229.5C 61.3658,228.995 62.6991,226.995 61.5,223.5C 62.8631,222.107 63.6964,220.441 64,218.5C 64.6543,219.696 65.1543,219.696 65.5,218.5C 62.9557,217.063 62.9557,215.563 65.5,214C 63.1845,211.524 63.5178,209.191 66.5,207C 65.2889,205.887 65.2889,204.72 66.5,203.5C 69.2789,202.327 69.9455,200.493 68.5,198C 69.6667,193.5 70.8333,189 72,184.5C 73.4733,181.375 75.3066,178.541 77.5,176C 81.0994,175.649 81.4328,176.649 78.5,179C 79.2524,179.671 79.5858,180.504 79.5,181.5 Z"/></g>
<g><path style="opacity:1" fill="#6c2a1b" d="M 150.5,245.5 C 152.797,248.807 155.13,252.14 157.5,255.5C 153.587,253.256 151.253,249.923 150.5,245.5 Z"/></g>
<g><path style="opacity:1" fill="#cb5b45" d="M 149.5,245.5 C 149.833,245.5 150.167,245.5 150.5,245.5C 151.253,249.923 153.587,253.256 157.5,255.5C 158.833,256.833 160.167,258.167 161.5,259.5C 161.5,260.167 161.5,260.833 161.5,261.5C 157.869,258.371 154.369,255.037 151,251.5C 149.872,249.655 149.372,247.655 149.5,245.5 Z"/></g>
<g><path style="opacity:1" fill="#494f51" d="M 234.5,237.5 C 236.006,245.445 236.673,253.612 236.5,262C 236.499,267.677 236.166,273.177 235.5,278.5C 235.645,264.817 235.312,251.15 234.5,237.5 Z"/></g>
<g><path style="opacity:1" fill="#9a3b28" d="M 149.5,245.5 C 148.391,245.443 147.391,245.11 146.5,244.5C 146.114,241.738 144.781,240.738 142.5,241.5C 140.979,247.192 139.645,252.859 138.5,258.5C 140.599,270.09 141.932,281.757 142.5,293.5C 143.5,293.5 144.5,293.5 145.5,293.5C 147.43,299.633 148.93,305.967 150,312.5C 150.86,315.633 152.36,318.3 154.5,320.5C 154.022,323.278 155.022,325.278 157.5,326.5C 158.246,327.736 158.579,329.07 158.5,330.5C 152.906,324.534 148.906,317.534 146.5,309.5C 146.128,305.703 144.794,302.37 142.5,299.5C 137.746,280.485 136.246,261.151 138,241.5C 140.139,239.194 141.639,236.527 142.5,233.5C 143.478,233.977 144.311,234.643 145,235.5C 146.74,238.735 148.24,242.069 149.5,245.5 Z"/></g>
<g><path style="opacity:1" fill="#e54d28" d="M 146.5,244.5 C 147.391,245.11 148.391,245.443 149.5,245.5C 149.372,247.655 149.872,249.655 151,251.5C 154.369,255.037 157.869,258.371 161.5,261.5C 161.733,263.062 162.4,264.395 163.5,265.5C 161.321,265.16 159.488,264.16 158,262.5C 157.667,262.833 157.333,263.167 157,263.5C 156.355,262.354 155.522,261.354 154.5,260.5C 155.326,259.549 155.492,258.549 155,257.5C 152.502,255.583 149.835,253.916 147,252.5C 145.912,254.385 145.079,256.385 144.5,258.5C 145.952,270.192 147.619,281.859 149.5,293.5C 143.874,278.012 142.374,262.012 145,245.5C 145.383,244.944 145.883,244.611 146.5,244.5 Z"/></g>
<g><path style="opacity:1" fill="#3f4043" d="M 402.5,287.5 C 399.535,282.819 398.868,277.819 400.5,272.5C 402.996,268.224 406.829,266.224 412,266.5C 425.123,269.585 428.123,276.918 421,288.5C 414.574,292.707 408.408,292.374 402.5,287.5 Z"/></g>
<g><path style="opacity:1" fill="#a4a3ab" d="M 410.5,271.5 C 418.543,271.003 420.21,273.836 415.5,280C 413.299,280.825 411.466,280.325 410,278.5C 409.297,276.071 409.463,273.738 410.5,271.5 Z"/></g>
<g><path style="opacity:1" fill="#acadba" d="M 390.5,243.5 C 393.393,244.18 395.893,245.513 398,247.5C 397.859,256.227 398.692,264.56 400.5,272.5C 398.868,277.819 399.535,282.819 402.5,287.5C 401.141,286.993 400.141,285.993 399.5,284.5C 399.167,291.333 398.833,298.167 398.5,305C 399.906,336.148 400.739,367.315 401,398.5C 402.362,397.075 403.862,396.242 405.5,396C 404.5,395 403.5,394 402.5,393C 403.337,391.989 403.67,390.822 403.5,389.5C 405.917,391.411 408.25,393.578 410.5,396C 415.021,396.85 419.355,396.35 423.5,394.5C 423.074,396.285 421.908,397.285 420,397.5C 416.46,397.963 412.96,398.63 409.5,399.5C 425.635,402.531 441.802,403.198 458,401.5C 495.813,403.934 533.646,404.101 571.5,402C 589.924,398.739 606.59,391.572 621.5,380.5C 626.637,374.889 631.137,370.223 635,366.5C 638.064,365.216 640.898,365.549 643.5,367.5C 641.824,368.183 641.157,369.517 641.5,371.5C 623.912,393.136 601.246,406.303 573.5,411C 561.392,412.649 549.225,413.483 537,413.5C 488.525,411.28 440.025,409.947 391.5,409.5C 391.392,365.492 390.725,321.492 389.5,277.5C 389.521,266.123 389.854,254.789 390.5,243.5 Z"/></g>
<g><path style="opacity:1" fill="#9596af" d="M 317.5,192.5 C 321.289,196.559 325.622,199.892 330.5,202.5C 323.046,207.447 315.713,212.614 308.5,218C 306.598,219.73 304.931,221.563 303.5,223.5C 302.85,225.447 301.683,227.113 300,228.5C 299.21,231.634 299.543,234.634 301,237.5C 307.292,241.723 313.458,246.056 319.5,250.5C 320.386,251.325 320.719,252.325 320.5,253.5C 323.914,254.142 326.747,255.809 329,258.5C 330.596,307.486 331.429,356.486 331.5,405.5C 312.826,407.499 294.159,410.166 275.5,413.5C 274.909,412.849 274.243,412.182 273.5,411.5C 274.274,410.289 275.107,410.289 276,411.5C 277.067,410.809 278.234,410.309 279.5,410C 274.845,409.501 270.179,409.334 265.5,409.5C 265.5,411.167 265.5,412.833 265.5,414.5C 260.213,413.658 254.88,413.324 249.5,413.5C 249.682,411.409 249.348,409.409 248.5,407.5C 249.145,406.354 249.978,405.354 251,404.5C 259.18,404.576 269.014,404.909 280.5,405.5C 280.334,395.161 280.5,384.828 281,374.5C 281.667,373.833 282.333,373.167 283,372.5C 287.333,372.833 291.667,373.167 296,373.5C 296.333,368.5 296.667,363.5 297,358.5C 297.667,357.833 298.333,357.167 299,356.5C 303.333,356.833 307.667,357.167 312,357.5C 312.5,341.837 312.667,326.17 312.5,310.5C 307.188,310.459 302.188,310.126 297.5,309.5C 295.763,303.417 296.763,297.917 300.5,293C 298.768,287.095 297.268,287.262 296,293.5C 295.501,298.823 295.334,304.156 295.5,309.5C 292.8,310.516 290.134,310.516 287.5,309.5C 286.276,311.828 286.276,314.161 287.5,316.5C 286.675,317.386 285.675,317.719 284.5,317.5C 284.737,316.209 284.404,315.209 283.5,314.5C 292.191,276.911 292.524,239.244 284.5,201.5C 285.397,200.402 286.23,200.402 287,201.5C 287.956,200.421 288.789,199.255 289.5,198C 291.433,197.749 293.266,197.249 295,196.5C 300.667,196.833 306.333,197.167 312,197.5C 313.163,195.715 313.83,193.715 314,191.5C 314.123,196.436 315.29,196.769 317.5,192.5 Z"/></g>
<g><path style="opacity:1" fill="#c13a17" d="M 146.5,244.5 C 145.883,244.611 145.383,244.944 145,245.5C 142.374,262.012 143.874,278.012 149.5,293.5C 152.564,313.489 163.231,327.655 181.5,336C 188.757,337.509 195.423,336.175 201.5,332C 203.966,328.533 206.966,325.7 210.5,323.5C 214.627,317.387 218.294,311.054 221.5,304.5C 222.167,304.5 222.833,304.5 223.5,304.5C 224.627,305.122 225.627,305.955 226.5,307C 225.62,309.259 224.62,311.425 223.5,313.5C 219.005,319.749 214.338,325.749 209.5,331.5C 207.156,331.675 205.489,332.842 204.5,335C 200.209,334.792 196.542,336.125 193.5,339C 190.131,339.663 186.797,339.496 183.5,338.5C 179.311,341.818 176.977,340.818 176.5,335.5C 174.146,335.162 171.813,334.662 169.5,334C 166.562,332.166 163.562,330.666 160.5,329.5C 159.711,325.707 157.711,322.707 154.5,320.5C 152.36,318.3 150.86,315.633 150,312.5C 148.93,305.967 147.43,299.633 145.5,293.5C 144.5,293.5 143.5,293.5 142.5,293.5C 141.932,281.757 140.599,270.09 138.5,258.5C 139.645,252.859 140.979,247.192 142.5,241.5C 144.781,240.738 146.114,241.738 146.5,244.5 Z"/></g>
<g><path style="opacity:1" fill="#616379" d="M 336.5,254.5 C 337.674,284.327 338.34,314.327 338.5,344.5C 337.833,343.5 337.167,342.5 336.5,341.5C 336.5,312.5 336.5,283.5 336.5,254.5 Z"/></g>
<g><path style="opacity:1" fill="#070712" d="M 55.5,238.5 C 55.5,242.833 55.5,247.167 55.5,251.5C 53.6988,361.33 52.8654,471.33 53,581.5C 54.7683,585.325 56.7683,585.325 59,581.5C 59.3333,579.833 59.6667,578.167 60,576.5C 62.6096,572.258 65.4429,568.258 68.5,564.5C 68.2606,566.467 68.5939,568.301 69.5,570C 67.8333,571 66.5,572.333 65.5,574C 64.552,574.483 63.552,574.649 62.5,574.5C 60.8247,579.155 59.4914,583.655 58.5,588C 57.5838,588.374 56.7504,588.874 56,589.5C 54.4877,587.043 53.1544,587.043 52,589.5C 50.066,587.484 49.7326,585.484 51,583.5C 51.1667,568.5 51.3333,553.5 51.5,538.5C 51.2922,514.125 50.9589,489.792 50.5,465.5C 52.2977,454.35 52.2977,443.35 50.5,432.5C 51.5478,411.451 51.5478,390.451 50.5,369.5C 50.6667,365.5 50.8333,361.5 51,357.5C 51.6667,358.833 52.3333,358.833 53,357.5C 53.7314,320.587 53.5647,283.753 52.5,247C 53.6943,244.112 54.6943,241.278 55.5,238.5 Z"/></g>
<g><path style="opacity:1" fill="#6c7389" d="M 336.5,341.5 C 337.167,342.5 337.833,343.5 338.5,344.5C 339.442,365.477 339.775,386.477 339.5,407.5C 338.778,407.082 338.278,406.416 338,405.5C 336.025,392.223 334.692,378.89 334,365.5C 333.375,376.01 333.542,386.51 334.5,397C 334.333,399.5 334.167,402 334,404.5C 332.618,388.872 332.118,373.206 332.5,357.5C 333.822,357.33 334.989,357.663 336,358.5C 336.499,352.843 336.666,347.176 336.5,341.5 Z"/></g>
<g><path style="opacity:1" fill="#aaacb8" d="M 532.5,107.5 C 556.234,106.682 576.734,114.016 594,129.5C 594.333,129.167 594.667,128.833 595,128.5C 598.704,134.363 603.204,139.363 608.5,143.5C 610.527,146.221 612.027,149.221 613,152.5C 616.389,155.25 619.056,158.583 621,162.5C 625.012,172.506 629.012,182.506 633,192.5C 634.543,198.587 636.376,204.587 638.5,210.5C 646.002,249.149 641.835,286.483 626,322.5C 624.866,325.258 623.366,327.758 621.5,330C 621.833,330.333 622.167,330.667 622.5,331C 621.369,336.114 618.869,340.281 615,343.5C 600.76,368.583 580.26,386.25 553.5,396.5C 541.937,398.891 530.27,399.724 518.5,399C 517.034,398.365 515.7,397.531 514.5,396.5C 513.833,396.833 513.167,397.167 512.5,397.5C 503.826,396.5 495.826,393.667 488.5,389C 487.101,388.405 485.768,388.572 484.5,389.5C 483.707,388.645 484.04,387.811 485.5,387C 475.853,380.698 467.353,372.865 460,363.5C 459.667,361.833 459.333,360.167 459,358.5C 458.667,358.833 458.333,359.167 458,359.5C 452.733,351.347 447.233,343.013 441.5,334.5C 442.443,332.53 441.776,331.03 439.5,330C 439.833,329.667 440.167,329.333 440.5,329C 423.698,283.309 423.198,237.476 439,191.5C 440.698,189.734 442.031,187.734 443,185.5C 451.21,161.804 465.043,142.138 484.5,126.5C 492.248,121.946 500.082,117.613 508,113.5C 516.045,110.693 524.212,108.693 532.5,107.5 Z"/></g>
<g><path style="opacity:1" fill="#040405" d="M 532.5,114.5 C 553.584,114.265 572.251,120.765 588.5,134C 614.693,159.224 629.527,190.057 633,226.5C 637.399,272.582 626.732,314.582 601,352.5C 588.655,368.518 573.155,380.351 554.5,388C 523.82,397.133 496.987,390.633 474,368.5C 446.902,336.72 433.735,299.72 434.5,257.5C 434.754,213.2 449.421,174.7 478.5,142C 488.016,132.411 499.016,125.078 511.5,120C 518.509,117.666 525.509,115.833 532.5,114.5 Z"/></g>
<g><path style="opacity:1" fill="#9aa6ac" d="M 530.5,128.5 C 554.417,127.875 573.917,136.875 589,155.5C 607.903,182.745 617.403,213.079 617.5,246.5C 617.684,281.098 608.851,313.098 591,342.5C 582.459,354.041 572.293,363.875 560.5,372C 530.324,387.08 504.157,381.914 482,356.5C 460.728,327.841 450.561,295.508 451.5,259.5C 451.04,222.321 461.54,188.654 483,158.5C 495.394,142.918 511.227,132.918 530.5,128.5 Z"/></g>
<g><path style="opacity:1" fill="#888e91" d="M 536.5,150.5 C 548.138,151.06 558.804,154.56 568.5,161C 570.439,161.908 571.439,163.408 571.5,165.5C 575.981,167.459 579.815,170.459 583,174.5C 602.054,201.061 609.721,230.727 606,263.5C 603.614,288.746 595.281,311.746 581,332.5C 571.581,343.776 560.081,351.942 546.5,357C 526.391,362.138 508.391,358.138 492.5,345C 489.429,340.857 485.929,337.024 482,333.5C 458.897,296.023 453.897,256.023 467,213.5C 473.626,192.059 485.793,174.559 503.5,161C 507.706,158.398 512.039,156.064 516.5,154C 523.21,152.286 529.876,151.12 536.5,150.5 Z"/></g>
<g><path style="opacity:1" fill="#030406" d="M 529.5,159.5 C 549.87,159.102 566.037,167.102 578,183.5C 597.548,215.217 602.548,249.217 593,285.5C 588.167,305.031 578.667,321.864 564.5,336C 535.529,357.977 510.029,354.477 488,325.5C 472.576,299.658 466.576,271.658 470,241.5C 473.314,213.875 484.814,190.542 504.5,171.5C 508.633,169.198 512.633,166.698 516.5,164C 520.893,162.329 525.226,160.829 529.5,159.5 Z"/></g>
<g><path style="opacity:1" fill="#0e3856" d="M 545.5,337.5 C 544.4,338.558 543.066,339.392 541.5,340C 537.311,340.812 533.311,340.645 529.5,339.5C 534.97,339.754 540.304,339.087 545.5,337.5 Z"/></g>
<g><path style="opacity:1" fill="#012f54" d="M 519.5,337.5 C 521.565,337.517 523.565,337.85 525.5,338.5C 525.5,338.833 525.5,339.167 525.5,339.5C 523.102,339.741 521.102,339.074 519.5,337.5 Z"/></g>
<g><path style="opacity:1" fill="#439acc" d="M 557.5,329.5 C 554.293,333.377 550.293,336.044 545.5,337.5C 540.304,339.087 534.97,339.754 529.5,339.5C 528.167,339.5 526.833,339.5 525.5,339.5C 525.5,339.167 525.5,338.833 525.5,338.5C 529.514,338.666 533.514,338.499 537.5,338C 544.303,335.332 550.969,332.499 557.5,329.5 Z"/></g>
<g><path style="opacity:1" fill="#072c4d" d="M 505.5,328.5 C 509.039,331.099 512.705,333.432 516.5,335.5C 511.672,334.923 508.005,332.59 505.5,328.5 Z"/></g>
<g><path style="opacity:1" fill="#082a4b" d="M 489.5,298.5 C 492.298,304.876 495.298,311.209 498.5,317.5C 495.973,315.49 494.139,312.823 493,309.5C 491.241,305.991 490.074,302.325 489.5,298.5 Z"/></g>
<g><path style="opacity:1" fill="#35a4f1" d="M 543.5,182.5 C 536.943,180.261 530.276,180.094 523.5,182C 511.159,188.786 502.659,198.952 498,212.5C 485.951,247.576 488.284,281.576 505,314.5C 510.026,323.195 517.193,329.362 526.5,333C 529.706,333.296 532.872,333.796 536,334.5C 549.146,331.368 558.813,323.701 565,311.5C 581.641,276.084 581.641,240.751 565,205.5C 561.723,199.73 557.89,194.397 553.5,189.5C 553.794,186.354 555.461,185.187 558.5,186C 560.542,190.455 563.708,193.955 568,196.5C 569.672,201.353 571.506,206.187 573.5,211C 572.346,211.914 572.513,212.747 574,213.5C 574.333,213.167 574.667,212.833 575,212.5C 575.344,217.341 576.511,221.841 578.5,226C 577.646,227.785 578.313,228.951 580.5,229.5C 580.833,230.833 581.167,232.167 581.5,233.5C 582.89,248.19 582.724,262.857 581,277.5C 578.636,284.611 576.636,291.944 575,299.5C 570.462,304.604 567.962,310.604 567.5,317.5C 564.633,321.909 561.299,325.909 557.5,329.5C 550.969,332.499 544.303,335.332 537.5,338C 533.514,338.499 529.514,338.666 525.5,338.5C 523.565,337.85 521.565,337.517 519.5,337.5C 519.027,336.094 518.027,335.427 516.5,335.5C 512.705,333.432 509.039,331.099 505.5,328.5C 503.921,324.338 501.587,320.672 498.5,317.5C 495.298,311.209 492.298,304.876 489.5,298.5C 489.5,298.167 489.5,297.833 489.5,297.5C 487.807,290.73 486.141,284.063 484.5,277.5C 483.077,260.8 483.411,244.133 485.5,227.5C 485.5,227.167 485.5,226.833 485.5,226.5C 487.734,222.478 489.401,218.144 490.5,213.5C 491.363,211.579 492.029,209.579 492.5,207.5C 494.916,202.999 497.583,198.666 500.5,194.5C 503.884,190.787 507.217,187.121 510.5,183.5C 511.29,182.599 512.29,181.932 513.5,181.5C 516.355,180.883 519.022,179.883 521.5,178.5C 526.108,177.622 530.775,176.622 535.5,175.5C 539.22,176.12 542.886,176.953 546.5,178C 548.385,180.383 550.718,182.216 553.5,183.5C 552.667,183.833 551.833,184.167 551,184.5C 548.528,183.678 546.028,183.011 543.5,182.5 Z"/></g>
<g><path style="opacity:1" fill="#022448" d="M 582.5,283.5 C 582.712,287.345 581.712,290.679 579.5,293.5C 579.757,289.829 580.757,286.495 582.5,283.5 Z"/></g>
<g><path style="opacity:1" fill="#052b45" d="M 484.5,277.5 C 486.141,284.063 487.807,290.73 489.5,297.5C 486.074,291.399 484.407,284.732 484.5,277.5 Z"/></g>
<g><path style="opacity:1" fill="#3a8bc5" d="M 581.5,233.5 C 582.319,236.305 582.819,239.305 583,242.5C 583.5,253.828 583.667,265.162 583.5,276.5C 582.631,278.717 582.298,281.05 582.5,283.5C 580.757,286.495 579.757,289.829 579.5,293.5C 575.992,301.849 571.992,309.849 567.5,317.5C 567.962,310.604 570.462,304.604 575,299.5C 576.636,291.944 578.636,284.611 581,277.5C 582.724,262.857 582.89,248.19 581.5,233.5 Z"/></g>
<g><path style="opacity:1" fill="#0a3b5d" d="M 485.5,227.5 C 483.411,244.133 483.077,260.8 484.5,277.5C 483.005,269.889 482.338,262.056 482.5,254C 482.667,248.833 482.833,243.667 483,238.5C 483.108,234.535 483.941,230.868 485.5,227.5 Z"/></g>
<g><path style="opacity:1" fill="#042441" d="M 576.5,209.5 C 580.693,219.274 583.193,229.608 584,240.5C 586.07,252.688 585.903,264.688 583.5,276.5C 583.667,265.162 583.5,253.828 583,242.5C 582.819,239.305 582.319,236.305 581.5,233.5C 581.167,232.167 580.833,230.833 580.5,229.5C 579.788,222.701 578.455,216.034 576.5,209.5 Z"/></g>
<g><path style="opacity:1" fill="#032648" d="M 490.5,213.5 C 489.401,218.144 487.734,222.478 485.5,226.5C 485.838,221.459 487.505,217.126 490.5,213.5 Z"/></g>
<g><path style="opacity:1" fill="#072c54" d="M 573.5,202.5 C 575.065,204.509 576.065,206.843 576.5,209.5C 574.552,207.68 573.552,205.346 573.5,202.5 Z"/></g>
<g><path style="opacity:1" fill="#29709d" d="M 510.5,183.5 C 507.217,187.121 503.884,190.787 500.5,194.5C 501.655,191.525 503.322,188.858 505.5,186.5C 505.5,185.833 505.833,185.5 506.5,185.5C 507.833,184.833 509.167,184.167 510.5,183.5 Z"/></g>
<g><path style="opacity:1" fill="#052749" d="M 505.5,186.5 C 503.322,188.858 501.655,191.525 500.5,194.5C 497.583,198.666 494.916,202.999 492.5,207.5C 492.799,203.895 493.965,200.561 496,197.5C 498.248,194.672 500.248,191.672 502,188.5C 502.816,187.177 503.983,186.511 505.5,186.5 Z"/></g>
<g><path style="opacity:1" fill="#3c9ce0" d="M 539.5,174.5 C 542.417,175.417 545.417,176.084 548.5,176.5C 550.296,178.9 552.63,180.567 555.5,181.5C 558.859,184.529 562.192,187.529 565.5,190.5C 567.987,194.645 570.654,198.645 573.5,202.5C 573.552,205.346 574.552,207.68 576.5,209.5C 578.455,216.034 579.788,222.701 580.5,229.5C 578.313,228.951 577.646,227.785 578.5,226C 576.511,221.841 575.344,217.341 575,212.5C 574.667,212.833 574.333,213.167 574,213.5C 572.513,212.747 572.346,211.914 573.5,211C 571.506,206.187 569.672,201.353 568,196.5C 563.708,193.955 560.542,190.455 558.5,186C 555.461,185.187 553.794,186.354 553.5,189.5C 550.043,187.307 546.71,184.974 543.5,182.5C 546.028,183.011 548.528,183.678 551,184.5C 551.833,184.167 552.667,183.833 553.5,183.5C 550.718,182.216 548.385,180.383 546.5,178C 542.886,176.953 539.22,176.12 535.5,175.5C 530.775,176.622 526.108,177.622 521.5,178.5C 526.99,175.347 532.99,174.014 539.5,174.5 Z"/></g>
<g><path style="opacity:1" fill="#08284d" d="M 555.5,181.5 C 558.285,181.933 560.619,183.266 562.5,185.5C 563.952,186.94 564.952,188.606 565.5,190.5C 562.192,187.529 558.859,184.529 555.5,181.5 Z"/></g>
<g><path style="opacity:1" fill="#38e0f9" d="M 543.5,182.5 C 546.71,184.974 550.043,187.307 553.5,189.5C 557.89,194.397 561.723,199.73 565,205.5C 581.641,240.751 581.641,276.084 565,311.5C 558.813,323.701 549.146,331.368 536,334.5C 532.872,333.796 529.706,333.296 526.5,333C 517.193,329.362 510.026,323.195 505,314.5C 488.284,281.576 485.951,247.576 498,212.5C 502.659,198.952 511.159,188.786 523.5,182C 530.276,180.094 536.943,180.261 543.5,182.5 Z"/></g>
<g><path style="opacity:1" fill="#34a6bb" d="M 540.5,266.5 C 541.641,258.64 539.308,252.14 533.5,247C 527.011,245.01 522.678,247.177 520.5,253.5C 516.644,263.188 518.311,271.688 525.5,279C 528.555,279.634 531.555,279.468 534.5,278.5C 536.757,276.271 538.757,273.938 540.5,271.5C 538.486,280.014 533.152,283.181 524.5,281C 522.099,278.057 519.599,275.223 517,272.5C 514.066,261.36 516.9,252.193 525.5,245C 529.95,243.886 533.95,244.72 537.5,247.5C 541.184,251.95 542.85,256.784 542.5,262C 542.431,263.986 541.765,265.486 540.5,266.5 Z"/></g>
<g><path style="opacity:1" fill="#013545" d="M 522.5,252.5 C 520.522,258.659 520.022,264.993 521,271.5C 525.332,279.792 530.498,280.459 536.5,273.5C 535.833,275.167 535.167,276.833 534.5,278.5C 531.555,279.468 528.555,279.634 525.5,279C 518.311,271.688 516.644,263.188 520.5,253.5C 521.167,253.167 521.833,252.833 522.5,252.5 Z"/></g>
<g><path style="opacity:1" fill="#0b4c5e" d="M 540.5,266.5 C 540.5,268.167 540.5,269.833 540.5,271.5C 538.757,273.938 536.757,276.271 534.5,278.5C 535.167,276.833 535.833,275.167 536.5,273.5C 539.289,266.399 539.123,259.399 536,252.5C 531.585,247.339 527.085,247.339 522.5,252.5C 521.833,252.833 521.167,253.167 520.5,253.5C 522.678,247.177 527.011,245.01 533.5,247C 539.308,252.14 541.641,258.64 540.5,266.5 Z"/></g>
<g><path style="opacity:1" fill="#000000" d="M 536.5,273.5 C 530.498,280.459 525.332,279.792 521,271.5C 520.022,264.993 520.522,258.659 522.5,252.5C 527.085,247.339 531.585,247.339 536,252.5C 539.123,259.399 539.289,266.399 536.5,273.5 Z"/></g>
<g><path style="opacity:1" fill="#032142" d="M 515.5,178.5 C 514.833,179.5 514.167,180.5 513.5,181.5C 512.29,181.932 511.29,182.599 510.5,183.5C 509.167,184.167 507.833,184.833 506.5,185.5C 508.879,182.465 511.879,180.131 515.5,178.5 Z"/></g>
<g><path style="opacity:1" fill="#3275a7" d="M 529.5,173.5 C 533.042,173.187 536.375,173.521 539.5,174.5C 532.99,174.014 526.99,175.347 521.5,178.5C 519.022,179.883 516.355,180.883 513.5,181.5C 514.167,180.5 514.833,179.5 515.5,178.5C 520.393,177.204 525.06,175.538 529.5,173.5 Z"/></g>
<g><path style="opacity:1" fill="#021d39" d="M 529.5,173.5 C 536.24,171.691 542.573,172.691 548.5,176.5C 545.417,176.084 542.417,175.417 539.5,174.5C 536.375,173.521 533.042,173.187 529.5,173.5 Z"/></g>
<g><path style="opacity:1" fill="#484c52" d="M 643.5,367.5 C 644.791,367.263 645.791,367.596 646.5,368.5C 645.167,368.5 643.833,368.5 642.5,368.5C 642.737,369.791 642.404,370.791 641.5,371.5C 641.157,369.517 641.824,368.183 643.5,367.5 Z"/></g>
<g><path style="opacity:1" fill="#414245" d="M 423.5,394.5 C 419.355,396.35 415.021,396.85 410.5,396C 408.25,393.578 405.917,391.411 403.5,389.5C 403.335,386.15 403.502,382.817 404,379.5C 407.41,372.547 412.91,370.047 420.5,372C 429.978,378.322 430.978,385.822 423.5,394.5 Z"/></g>
<g><path style="opacity:1" fill="#a4a5aa" d="M 415.5,375.5 C 422.084,375.004 423.751,377.504 420.5,383C 413.701,383.717 412.034,381.217 415.5,375.5 Z"/></g>
<g><path style="opacity:1" fill="#040404" d="M 559.5,677.5 C 556.753,677.187 554.086,677.52 551.5,678.5C 551.137,679.183 550.804,679.85 550.5,680.5C 491.947,681.816 433.447,681.816 375,680.5C 374.83,602.46 374.33,524.46 373.5,446.5C 374.069,443.763 375.736,442.263 378.5,442C 385.167,441.667 391.833,441.333 398.5,441C 453.506,441.276 508.506,441.943 563.5,443C 570.167,442.667 576.833,442.333 583.5,442C 594.554,439.557 605.554,437.057 616.5,434.5C 616.291,492.203 614.791,549.869 612,607.5C 610.477,627.413 603.477,645.079 591,660.5C 582.015,668.91 571.515,674.577 559.5,677.5 Z"/></g>
<g><path style="opacity:1" fill="#030303" d="M 339.5,444.5 C 343.767,444.203 347.934,444.536 352,445.5C 352.667,522.167 352.667,598.833 352,675.5C 350.833,677.333 349.667,679.167 348.5,681C 257.833,681.667 167.167,681.667 76.5,681C 71.1667,680.667 65.8333,680.333 60.5,680C 60,679.5 59.5,679 59,678.5C 59.2172,663.745 61.8839,649.412 67,635.5C 77.97,608.874 92.97,584.874 112,563.5C 146.836,525.311 187.336,494.811 233.5,472C 267.638,457.918 302.971,448.751 339.5,444.5 Z"/></g>
<g><path style="opacity:1" fill="#595959" d="M 412.5,455.5 C 408.005,456.422 403.338,457.089 398.5,457.5C 398.918,456.778 399.584,456.278 400.5,456C 404.486,455.501 408.486,455.334 412.5,455.5 Z"/></g>
<g><path style="opacity:1" fill="#bdbdbd" d="M 412.5,455.5 C 422.172,455.334 431.839,455.5 441.5,456C 443.609,457.141 445.442,458.641 447,460.5C 448.023,479.494 448.356,498.494 448,517.5C 446.441,521.725 443.608,524.559 439.5,526C 425.511,527.5 411.511,528.5 397.5,529C 395.714,528.215 394.214,527.049 393,525.5C 391.357,504.923 391.024,484.256 392,463.5C 393.535,460.706 395.702,458.706 398.5,457.5C 403.338,457.089 408.005,456.422 412.5,455.5 Z"/></g>
<g><path style="opacity:1" fill="#bfbfbf" d="M 585.5,455.5 C 591.291,454.489 596.124,456.156 600,460.5C 600.667,474.167 600.667,487.833 600,501.5C 598.152,508.022 594.652,513.522 589.5,518C 579.798,522.479 569.632,525.312 559,526.5C 552.459,527.328 548.126,524.662 546,518.5C 545.027,500.076 545.36,481.743 547,463.5C 548.167,462.333 549.333,461.167 550.5,460C 558.167,459.667 565.833,459.333 573.5,459C 577.709,458.119 581.709,456.953 585.5,455.5 Z"/></g>
<g><path style="opacity:1" fill="#dfdfdf" d="M 403.5,463.5 C 415.5,463.5 427.5,463.5 439.5,463.5C 440.042,481.495 440.375,499.495 440.5,517.5C 428.406,517.983 416.406,519.316 404.5,521.5C 402.833,521.167 401.167,520.833 399.5,520.5C 398.181,503.201 398.181,485.868 399.5,468.5C 400.612,466.581 401.946,464.914 403.5,463.5 Z"/></g>
<g><path style="opacity:1" fill="#e0e0e0" d="M 584.5,464.5 C 587.167,464.5 589.833,464.5 592.5,464.5C 592.667,476.171 592.5,487.838 592,499.5C 591.64,501.608 590.973,503.608 590,505.5C 579.922,514.483 568.089,518.483 554.5,517.5C 553.378,501.198 553.211,484.865 554,468.5C 563.112,467.686 572.279,466.853 581.5,466C 582.737,465.768 583.737,465.268 584.5,464.5 Z"/></g>
<g><path style="opacity:1" fill="#959595" d="M 229.5,490.5 C 235.388,489.365 239.554,491.365 242,496.5C 242.738,504.875 242.405,513.208 241,521.5C 239.551,526.194 236.385,529.027 231.5,530C 221.866,531.275 212.199,532.275 202.5,533C 193.8,536.525 184.8,537.858 175.5,537C 173.522,534.503 173.022,531.669 174,528.5C 176.456,524.377 179.622,520.877 183.5,518C 198.259,507.712 213.593,498.546 229.5,490.5 Z"/></g>
<g><path style="opacity:1" fill="#b5b8b9" d="M 229.5,500.5 C 231.167,500.5 232.833,500.5 234.5,500.5C 234.829,506.206 234.495,511.872 233.5,517.5C 232.5,518.833 231.5,520.167 230.5,521.5C 216.051,522.993 201.718,525.326 187.5,528.5C 186.833,528.167 186.167,527.833 185.5,527.5C 199.323,517.061 213.99,508.061 229.5,500.5 Z"/></g>
<g><path style="opacity:1" fill="#949494" d="M 315.5,463.5 C 320.844,463.334 326.177,463.501 331.5,464C 334,465.167 335.833,467 337,469.5C 337.667,483.5 337.667,497.5 337,511.5C 335.348,518.743 330.848,522.909 323.5,524C 304.155,524.23 284.822,524.73 265.5,525.5C 262.13,525.674 259.63,524.341 258,521.5C 257.04,508.738 257.373,496.071 259,483.5C 261.592,480.238 264.759,477.738 268.5,476C 282.478,472.669 296.478,469.335 310.5,466C 312.491,465.626 314.158,464.793 315.5,463.5 Z"/></g>
<g><path style="opacity:1" fill="#b4baba" d="M 323.5,471.5 C 325.167,471.5 326.833,471.5 328.5,471.5C 328.667,484.837 328.5,498.171 328,511.5C 326.833,512.667 325.667,513.833 324.5,515C 304.874,516.179 285.208,517.013 265.5,517.5C 265.299,508.792 265.799,500.125 267,491.5C 267.229,488.542 268.396,486.042 270.5,484C 288.302,480.759 305.968,476.592 323.5,471.5 Z"/></g>
<g><path style="opacity:1" fill="#bcbcbc" d="M 469.5,456.5 C 486.19,456.26 502.857,456.76 519.5,458C 524.352,459.321 527.852,462.154 530,466.5C 530.667,483.5 530.667,500.5 530,517.5C 528.969,520.539 527.135,523.039 524.5,525C 505.899,526.628 487.232,526.961 468.5,526C 465.619,524.749 463.786,522.583 463,519.5C 462.333,500.5 462.333,481.5 463,462.5C 465.063,460.266 467.229,458.266 469.5,456.5 Z"/></g>
<g><path style="opacity:1" fill="#e0e0e0" d="M 471.5,465.5 C 486.854,465.356 502.187,465.856 517.5,467C 518.931,467.465 520.097,468.299 521,469.5C 522.136,477.234 522.636,485.068 522.5,493C 522.453,501.199 522.12,509.366 521.5,517.5C 504.85,518.373 488.184,518.706 471.5,518.5C 471.5,500.833 471.5,483.167 471.5,465.5 Z"/></g>
<g><path style="opacity:1" fill="#919191" d="M 518.5,541.5 C 504.163,541.333 489.829,541.5 475.5,542C 472.793,542.395 470.127,542.895 467.5,543.5C 469.026,541.87 471.026,541.037 473.5,541C 488.672,540.172 503.672,540.339 518.5,541.5 Z"/></g>
<g><path style="opacity:1" fill="#949494" d="M 265.5,539.5 C 286.836,539.333 308.169,539.5 329.5,540C 333.556,541.389 335.723,544.223 336,548.5C 336.869,562.87 336.536,577.203 335,591.5C 333.084,595.085 330.251,597.585 326.5,599C 306.167,599.667 285.833,599.667 265.5,599C 260.21,598.042 257.376,594.876 257,589.5C 256.333,576.167 256.333,562.833 257,549.5C 258.261,544.745 261.095,541.412 265.5,539.5 Z"/></g>
<g><path style="opacity:1" fill="#bcbcbc" d="M 412.5,600.5 C 406.773,600.74 401.106,600.407 395.5,599.5C 392.294,597.436 390.461,594.436 390,590.5C 389.847,576.458 390.347,562.458 391.5,548.5C 394.18,545.318 397.513,543.152 401.5,542C 415.214,541.094 428.881,541.427 442.5,543C 445.667,546.155 447.501,549.988 448,554.5C 448.667,565.167 448.667,575.833 448,586.5C 447.657,594.51 443.491,599.01 435.5,600C 427.841,600.5 420.174,600.666 412.5,600.5 Z"/></g>
<g><path style="opacity:1" fill="#bbbbbb" d="M 518.5,541.5 C 525.483,542.318 529.316,546.318 530,553.5C 530.667,566.167 530.667,578.833 530,591.5C 528.923,594.913 526.756,597.413 523.5,599C 505.169,599.85 486.835,600.183 468.5,600C 465.066,598.321 463.233,595.488 463,591.5C 462.333,577.167 462.333,562.833 463,548.5C 464.049,546.382 465.549,544.716 467.5,543.5C 470.127,542.895 472.793,542.395 475.5,542C 489.829,541.5 504.163,541.333 518.5,541.5 Z"/></g>
<g><path style="opacity:1" fill="#bdbdbd" d="M 585.5,534.5 C 588.518,534.335 591.518,534.502 594.5,535C 595.667,535.5 596.5,536.333 597,537.5C 597.667,549.5 597.667,561.5 597,573.5C 594.833,576.333 592.667,579.167 590.5,582C 581.435,587.7 571.768,592.033 561.5,595C 557.167,595.667 552.833,595.667 548.5,595C 546.959,593.421 545.792,591.587 545,589.5C 544.052,575.098 544.385,560.765 546,546.5C 547.961,543.865 550.461,542.031 553.5,541C 560.551,540.789 567.551,540.122 574.5,539C 578.58,538.245 582.246,536.745 585.5,534.5 Z"/></g>
<g><path style="opacity:1" fill="#dfdfdf" d="M 588.5,543.5 C 589.182,550.901 589.848,558.401 590.5,566C 589.424,570.421 587.091,574.087 583.5,577C 576.642,580.595 569.642,583.929 562.5,587C 559.183,587.498 555.85,587.665 552.5,587.5C 552.168,574.816 552.501,562.149 553.5,549.5C 565.483,548.711 577.149,546.711 588.5,543.5 Z"/></g>
<g><path style="opacity:1" fill="#727691" d="M 303.5,223.5 C 304.688,227.538 306.688,231.205 309.5,234.5C 319.102,240.456 328.102,247.123 336.5,254.5C 336.5,283.5 336.5,312.5 336.5,341.5C 336.666,347.176 336.499,352.843 336,358.5C 334.989,357.663 333.822,357.33 332.5,357.5C 332.118,373.206 332.618,388.872 334,404.5C 334.167,402 334.333,399.5 334.5,397C 333.542,386.51 333.375,376.01 334,365.5C 334.692,378.89 336.025,392.223 338,405.5C 338.278,406.416 338.778,407.082 339.5,407.5C 339.739,409.467 339.406,411.301 338.5,413C 288.941,415.091 241.941,427.091 197.5,449C 162.878,469.745 131.044,494.245 102,522.5C 90.106,535.975 78.9393,549.975 68.5,564.5C 65.4429,568.258 62.6096,572.258 60,576.5C 59.6667,578.167 59.3333,579.833 59,581.5C 56.7683,585.325 54.7683,585.325 53,581.5C 52.8654,471.33 53.6988,361.33 55.5,251.5C 55.0708,299.957 55.7374,348.29 57.5,396.5C 57.3755,403.954 56.3755,411.287 54.5,418.5C 54.6667,420.167 54.8333,421.833 55,423.5C 56,424.5 57,425.5 58,426.5C 58.1667,429.667 58.3333,432.833 58.5,436C 58.4608,441.116 57.4608,445.95 55.5,450.5C 57.2805,455.039 57.7805,459.706 57,464.5C 56.4444,462.405 55.9444,462.238 55.5,464C 55.5664,475.146 55.8997,486.313 56.5,497.5C 54.5636,505.073 54.3969,512.739 56,520.5C 56.3333,516.833 56.6667,513.167 57,509.5C 57.1667,512.167 57.3333,514.833 57.5,517.5C 56.0048,525.454 55.5048,533.454 56,541.5C 56.1816,538.774 56.6816,536.107 57.5,533.5C 58.3295,538.802 58.8295,544.136 59,549.5C 59.1683,530.662 59.6683,511.996 60.5,493.5C 60.167,515.843 60.5003,538.177 61.5,560.5C 64.7691,556.362 67.7691,552.028 70.5,547.5C 84.7026,531.111 99.3693,515.111 114.5,499.5C 141.722,476.438 170.722,455.938 201.5,438C 207.332,435.414 213.332,433.414 219.5,432C 228.322,428.632 236.989,424.965 245.5,421C 255.493,418.435 265.493,415.935 275.5,413.5C 294.159,410.166 312.826,407.499 331.5,405.5C 331.429,356.486 330.596,307.486 329,258.5C 326.747,255.809 323.914,254.142 320.5,253.5C 320.719,252.325 320.386,251.325 319.5,250.5C 313.458,246.056 307.292,241.723 301,237.5C 299.543,234.634 299.21,231.634 300,228.5C 301.683,227.113 302.85,225.447 303.5,223.5 Z"/></g>
<g><path style="opacity:1" fill="#8d90a0" d="M 301.5,377.5 C 298.445,386.266 300.778,393.099 308.5,398C 320.689,399.144 326.189,393.644 325,381.5C 320.477,374.822 314.311,372.489 306.5,374.5C 306.611,373.883 306.944,373.383 307.5,373C 312.838,372.121 318.004,372.621 323,374.5C 323.333,374.167 323.667,373.833 324,373.5C 325.049,375.107 326.549,375.773 328.5,375.5C 328.649,376.552 328.483,377.552 328,378.5C 327.282,377.549 326.449,377.383 325.5,378C 328.228,378.84 329.895,380.173 330.5,382C 328.833,383 327.5,384.333 326.5,386C 326.966,388.712 327.299,391.379 327.5,394C 327.245,395.326 326.578,396.326 325.5,397C 326.308,397.308 326.975,397.808 327.5,398.5C 323.073,399.642 318.906,401.309 315,403.5C 313.06,400.392 310.394,399.725 307,401.5C 306.55,398.894 305.05,397.561 302.5,397.5C 302.003,394.141 300.336,392.641 297.5,393C 297.902,388.887 298.068,384.387 298,379.5C 298.816,378.177 299.983,377.511 301.5,377.5 Z"/></g>
<g><path style="opacity:1" fill="#3f4045" d="M 301.5,377.5 C 302.922,376.075 304.589,375.075 306.5,374.5C 314.311,372.489 320.477,374.822 325,381.5C 326.189,393.644 320.689,399.144 308.5,398C 300.778,393.099 298.445,386.266 301.5,377.5 Z"/></g>
<g><path style="opacity:1" fill="#aaa9b3" d="M 305.5,376.5 C 312.486,376.331 314.153,379.164 310.5,385C 308.299,385.825 306.466,385.325 305,383.5C 304.444,381.115 304.61,378.782 305.5,376.5 Z"/></g>
<g><path style="opacity:1" fill="#bf3c1a" d="M 161.5,261.5 C 162.922,262.925 164.589,263.925 166.5,264.5C 167.048,266.532 168.381,267.532 170.5,267.5C 170.334,272.844 170.501,278.177 171,283.5C 173.113,288.28 176.613,291.78 181.5,294C 187.583,294.49 193.583,293.99 199.5,292.5C 200.183,292.863 200.85,293.196 201.5,293.5C 198.619,297.607 194.619,299.607 189.5,299.5C 182.912,299.664 176.912,297.997 171.5,294.5C 170.37,293.378 169.703,292.044 169.5,290.5C 171.059,286.922 170.225,283.922 167,281.5C 166.271,277.623 166.438,273.789 167.5,270C 167.178,267.479 165.844,265.979 163.5,265.5C 162.4,264.395 161.733,263.062 161.5,261.5 Z"/></g>
<g><path style="opacity:1" fill="#8c3526" d="M 166.5,264.5 C 169.148,264.738 170.982,266.072 172,268.5C 171.179,276.195 173.012,283.029 177.5,289C 178.745,289.791 180.078,290.291 181.5,290.5C 183.679,291.926 186.179,292.592 189,292.5C 191.544,292.664 193.71,291.997 195.5,290.5C 196.946,289.387 198.613,289.22 200.5,290C 202.233,291.189 203.9,292.356 205.5,293.5C 204.167,293.5 202.833,293.5 201.5,293.5C 200.85,293.196 200.183,292.863 199.5,292.5C 193.583,293.99 187.583,294.49 181.5,294C 176.613,291.78 173.113,288.28 171,283.5C 170.501,278.177 170.334,272.844 170.5,267.5C 168.381,267.532 167.048,266.532 166.5,264.5 Z"/></g>
<g><path style="opacity:1" fill="#3f4042" d="M 309.5,273.5 C 322.764,272.753 328.097,278.753 325.5,291.5C 317.703,299.47 309.87,299.47 302,291.5C 301.333,287.833 301.333,284.167 302,280.5C 304.069,277.594 306.569,275.261 309.5,273.5 Z"/></g>
<g><path style="opacity:1" fill="#f45129" d="M 163.5,265.5 C 163.754,270.74 163.921,276.074 164,281.5C 165.334,284.958 167.167,287.958 169.5,290.5C 169.703,292.044 170.37,293.378 171.5,294.5C 176.912,297.997 182.912,299.664 189.5,299.5C 194.619,299.607 198.619,297.607 201.5,293.5C 202.833,293.5 204.167,293.5 205.5,293.5C 205.33,294.822 205.663,295.989 206.5,297C 210.23,299.193 213.897,301.36 217.5,303.5C 218.959,303.433 220.292,303.766 221.5,304.5C 218.294,311.054 214.627,317.387 210.5,323.5C 206.966,325.7 203.966,328.533 201.5,332C 195.423,336.175 188.757,337.509 181.5,336C 163.231,327.655 152.564,313.489 149.5,293.5C 147.619,281.859 145.952,270.192 144.5,258.5C 145.079,256.385 145.912,254.385 147,252.5C 149.835,253.916 152.502,255.583 155,257.5C 155.492,258.549 155.326,259.549 154.5,260.5C 155.522,261.354 156.355,262.354 157,263.5C 157.333,263.167 157.667,262.833 158,262.5C 159.488,264.16 161.321,265.16 163.5,265.5 Z"/></g>
<g><path style="opacity:1" fill="#a7a7af" d="M 309.5,275.5 C 314.5,276.156 316.167,278.822 314.5,283.5C 310.154,286.498 307.487,285.331 306.5,280C 306.557,277.791 307.557,276.291 309.5,275.5 Z"/></g>
<g><path style="opacity:1" fill="#c83b16" d="M 163.5,265.5 C 165.844,265.979 167.178,267.479 167.5,270C 166.438,273.789 166.271,277.623 167,281.5C 170.225,283.922 171.059,286.922 169.5,290.5C 167.167,287.958 165.334,284.958 164,281.5C 163.921,276.074 163.754,270.74 163.5,265.5 Z"/></g>
<g><path style="opacity:1" fill="#9596b4" d="M 105.5,363.5 C 117.872,382.293 134.539,396.127 155.5,405C 164.56,406.945 173.727,408.112 183,408.5C 191.028,406.763 199.195,405.263 207.5,404C 215.319,400.258 222.986,396.258 230.5,392C 243.7,381.131 255.2,368.631 265,354.5C 271.667,341.299 277.834,327.966 283.5,314.5C 284.404,315.209 284.737,316.209 284.5,317.5C 285.675,317.719 286.675,317.386 287.5,316.5C 286.276,314.161 286.276,311.828 287.5,309.5C 290.134,310.516 292.8,310.516 295.5,309.5C 295.334,304.156 295.501,298.823 296,293.5C 297.268,287.262 298.768,287.095 300.5,293C 296.763,297.917 295.763,303.417 297.5,309.5C 302.188,310.126 307.188,310.459 312.5,310.5C 312.667,326.17 312.5,341.837 312,357.5C 307.667,357.167 303.333,356.833 299,356.5C 298.333,357.167 297.667,357.833 297,358.5C 296.667,363.5 296.333,368.5 296,373.5C 291.667,373.167 287.333,372.833 283,372.5C 282.333,373.167 281.667,373.833 281,374.5C 280.5,384.828 280.334,395.161 280.5,405.5C 269.014,404.909 259.18,404.576 251,404.5C 249.978,405.354 249.145,406.354 248.5,407.5C 249.348,409.409 249.682,411.409 249.5,413.5C 254.88,413.324 260.213,413.658 265.5,414.5C 265.5,412.833 265.5,411.167 265.5,409.5C 270.179,409.334 274.845,409.501 279.5,410C 278.234,410.309 277.067,410.809 276,411.5C 275.107,410.289 274.274,410.289 273.5,411.5C 274.243,412.182 274.909,412.849 275.5,413.5C 265.493,415.935 255.493,418.435 245.5,421C 236.989,424.965 228.322,428.632 219.5,432C 213.332,433.414 207.332,435.414 201.5,438C 170.722,455.938 141.722,476.438 114.5,499.5C 99.3693,515.111 84.7026,531.111 70.5,547.5C 70.8693,545.559 71.536,543.725 72.5,542C 71.552,541.517 70.552,541.351 69.5,541.5C 69.3367,539.143 69.5034,536.81 70,534.5C 71.0113,533.663 72.1779,533.33 73.5,533.5C 73.5,534.833 73.5,536.167 73.5,537.5C 78.2183,536.681 78.5516,535.014 74.5,532.5C 73.9962,479.028 73.1628,425.694 72,372.5C 71.3333,335.833 71.3333,299.167 72,262.5C 72.414,262.043 72.914,261.709 73.5,261.5C 74.4218,265.354 75.4218,269.187 76.5,273C 76.4554,275.22 75.4554,276.72 73.5,277.5C 72.5052,282.792 72.1718,288.125 72.5,293.5C 73.5,293.5 74.5,293.5 75.5,293.5C 75.33,294.822 75.6634,295.989 76.5,297C 75.2559,297.456 74.4226,296.956 74,295.5C 72.4179,310.454 72.0845,325.454 73,340.5C 73.6667,341.167 74.3333,341.833 75,342.5C 79.3333,342.167 83.6667,341.833 88,341.5C 89.9358,346.616 91.2691,351.95 92,357.5C 94.0693,358.264 96.236,358.764 98.5,359C 97.6634,360.011 97.33,361.178 97.5,362.5C 101.554,362.21 102.054,362.877 99,364.5C 98.3457,363.304 97.8457,363.304 97.5,364.5C 98.3333,364.833 99.1667,365.167 100,365.5C 101.537,364.886 102.87,364.886 104,365.5C 104.278,364.584 104.778,363.918 105.5,363.5 Z"/></g>
<g><path style="opacity:1" fill="#5a1d13" d="M 174.5,341.5 C 175.167,341.5 175.833,341.5 176.5,341.5C 184.363,344.078 192.363,344.078 200.5,341.5C 199.158,342.793 197.491,343.626 195.5,344C 189.5,344.667 183.5,344.667 177.5,344C 176.058,343.623 175.058,342.79 174.5,341.5 Z"/></g>
<g><path style="opacity:1" fill="#b53c21" d="M 154.5,320.5 C 157.711,322.707 159.711,325.707 160.5,329.5C 163.562,330.666 166.562,332.166 169.5,334C 171.813,334.662 174.146,335.162 176.5,335.5C 176.977,340.818 179.311,341.818 183.5,338.5C 186.797,339.496 190.131,339.663 193.5,339C 196.542,336.125 200.209,334.792 204.5,335C 205.489,332.842 207.156,331.675 209.5,331.5C 208.833,332.5 208.167,333.5 207.5,334.5C 205.103,336.559 203.103,338.892 201.5,341.5C 201.167,341.5 200.833,341.5 200.5,341.5C 192.363,344.078 184.363,344.078 176.5,341.5C 175.772,339.265 174.439,337.432 172.5,336C 167.35,334.908 162.684,333.075 158.5,330.5C 158.579,329.07 158.246,327.736 157.5,326.5C 155.022,325.278 154.022,323.278 154.5,320.5 Z"/></g>
<g><path style="opacity:1" fill="#60271a" d="M 214.5,330.5 C 213.883,332.229 212.883,333.729 211.5,335C 208.035,336.965 204.702,339.132 201.5,341.5C 203.103,338.892 205.103,336.559 207.5,334.5C 208.552,334.649 209.552,334.483 210.5,334C 211.532,332.373 212.866,331.207 214.5,330.5 Z"/></g>
<g><path style="opacity:1" fill="#943627" d="M 158.5,330.5 C 162.684,333.075 167.35,334.908 172.5,336C 174.439,337.432 175.772,339.265 176.5,341.5C 175.833,341.5 175.167,341.5 174.5,341.5C 171.774,341.736 169.441,340.903 167.5,339C 164,336.666 161,333.832 158.5,330.5 Z"/></g>
<g><path style="opacity:1" fill="#a53f2a" d="M 223.5,313.5 C 222.759,316.634 221.759,319.634 220.5,322.5C 218.512,325.128 216.512,327.795 214.5,330.5C 212.866,331.207 211.532,332.373 210.5,334C 209.552,334.483 208.552,334.649 207.5,334.5C 208.167,333.5 208.833,332.5 209.5,331.5C 214.338,325.749 219.005,319.749 223.5,313.5 Z"/></g>
<g><path style="opacity:1" fill="#7f3424" d="M 223.5,304.5 C 223.5,304.167 223.5,303.833 223.5,303.5C 225.971,303.233 227.638,304.233 228.5,306.5C 226.127,312.041 223.46,317.374 220.5,322.5C 221.759,319.634 222.759,316.634 223.5,313.5C 224.62,311.425 225.62,309.259 226.5,307C 225.627,305.955 224.627,305.122 223.5,304.5 Z"/></g>
<g><path style="opacity:1" fill="#3e0d06" d="M 142.5,299.5 C 144.794,302.37 146.128,305.703 146.5,309.5C 144.597,306.47 143.263,303.137 142.5,299.5 Z"/></g>
<g><path style="opacity:1" fill="#f95125" d="M 217.5,303.5 C 218.436,305.939 217.436,307.606 214.5,308.5C 215.025,309.192 215.692,309.692 216.5,310C 215.663,311.011 215.33,312.178 215.5,313.5C 211.307,313.362 208.973,315.362 208.5,319.5C 207.5,319.5 206.5,319.5 205.5,319.5C 206.51,322.244 206.176,324.577 204.5,326.5C 202.602,327.734 200.935,327.401 199.5,325.5C 197.724,327.538 196.057,329.704 194.5,332C 191.264,333.152 187.931,333.985 184.5,334.5C 182.313,333.678 180.647,332.178 179.5,330C 178.234,329.691 177.067,329.191 176,328.5C 175.667,328.833 175.333,329.167 175,329.5C 173.991,327.975 173.491,326.308 173.5,324.5C 172.5,324.5 171.5,324.5 170.5,324.5C 170.868,321.376 169.702,319.043 167,317.5C 165.451,320.003 163.784,320.003 162,317.5C 161.689,315.444 161.189,313.444 160.5,311.5C 162.073,308.807 164.407,307.974 167.5,309C 166.07,310.88 166.404,312.38 168.5,313.5C 171.693,310.977 175.36,309.311 179.5,308.5C 176.135,306.258 172.968,305.592 170,306.5C 167.757,302.389 169.091,300.722 174,301.5C 178.104,302.378 181.938,303.211 185.5,304C 186.138,305.707 186.138,307.54 185.5,309.5C 189.806,308.936 193.973,308.936 198,309.5C 200.609,309.625 202.942,308.958 205,307.5C 206.285,307.95 207.452,308.617 208.5,309.5C 210.271,308.965 210.604,308.131 209.5,307C 207.19,306.503 204.857,306.337 202.5,306.5C 203.042,303.197 205.042,301.197 208.5,300.5C 211.215,302.319 214.215,303.319 217.5,303.5 Z"/></g>
<g><path style="opacity:1" fill="#bc563e" d="M 205.5,293.5 C 206.391,294.11 207.391,294.443 208.5,294.5C 209.585,296.587 211.251,297.92 213.5,298.5C 216.523,300.678 219.856,302.345 223.5,303.5C 223.5,303.833 223.5,304.167 223.5,304.5C 222.833,304.5 222.167,304.5 221.5,304.5C 220.292,303.766 218.959,303.433 217.5,303.5C 213.897,301.36 210.23,299.193 206.5,297C 205.663,295.989 205.33,294.822 205.5,293.5 Z"/></g>
<g><path style="opacity:1" fill="#430e09" d="M 208.5,294.5 C 210.749,295.08 212.415,296.413 213.5,298.5C 211.251,297.92 209.585,296.587 208.5,294.5 Z"/></g>
<g><path style="opacity:1" fill="#360401" d="M 181.5,290.5 C 186.167,291.833 190.833,291.833 195.5,290.5C 193.71,291.997 191.544,292.664 189,292.5C 186.179,292.592 183.679,291.926 181.5,290.5 Z"/></g>
<g><path style="opacity:1" fill="#6c2317" d="M 161.5,259.5 C 163.5,260.833 165.167,262.5 166.5,264.5C 164.589,263.925 162.922,262.925 161.5,261.5C 161.5,260.833 161.5,260.167 161.5,259.5 Z"/></g>
<g><path style="opacity:1" fill="#b5baba" d="M 267.5,547.5 C 286.568,547.038 305.568,547.538 324.5,549C 327.019,555.65 328.019,562.65 327.5,570C 327.716,576.625 327.05,583.125 325.5,589.5C 324.692,589.808 324.025,590.308 323.5,591C 304.824,591.833 286.158,591.666 267.5,590.5C 266.045,588.78 265.212,586.78 265,584.5C 264.141,571.953 264.975,559.62 267.5,547.5 Z"/></g>
<g><path style="opacity:1" fill="#e0e0e0" d="M 472.5,548.5 C 486.504,548.333 500.504,548.5 514.5,549C 518.607,550.266 520.774,553.1 521,557.5C 521.667,568.5 521.667,579.5 521,590.5C 505.243,591.771 489.41,592.271 473.5,592C 472.874,591.25 472.374,590.416 472,589.5C 471.186,575.758 471.353,562.092 472.5,548.5 Z"/></g>
<g><path style="opacity:1" fill="#dfdfdf" d="M 401.5,549.5 C 413.864,549.248 426.197,549.582 438.5,550.5C 440.523,561.98 441.023,573.647 440,585.5C 439.707,587.925 438.541,589.758 436.5,591C 427.672,591.604 418.839,592.104 410,592.5C 405.977,592.425 402.144,591.758 398.5,590.5C 397.167,578.167 397.167,565.833 398.5,553.5C 400.288,552.717 401.288,551.384 401.5,549.5 Z"/></g>
<g><path style="opacity:1" fill="#5b5b5b" d="M 158.5,567.5 C 159.117,567.611 159.617,567.944 160,568.5C 160.814,573.02 160.647,577.354 159.5,581.5C 159.717,576.77 159.383,572.103 158.5,567.5 Z"/></g>
<g><path style="opacity:1" fill="#848484" d="M 395.5,599.5 C 401.106,600.407 406.773,600.74 412.5,600.5C 407.35,601.651 402.016,601.817 396.5,601C 395.944,600.617 395.611,600.117 395.5,599.5 Z"/></g>
<g><path style="opacity:1" fill="#969697" d="M 158.5,567.5 C 159.383,572.103 159.717,576.77 159.5,581.5C 159.664,589.541 159.164,597.541 158,605.5C 157.152,608.698 155.652,611.531 153.5,614C 138.227,618.87 123.227,624.536 108.5,631C 102.323,633.919 96.6559,637.586 91.5,642C 86.9322,643.65 84.2656,642.15 83.5,637.5C 93.0158,615.142 106.349,595.308 123.5,578C 130.648,572.182 138.314,567.182 146.5,563C 149.5,562.333 152.5,562.333 155.5,563C 157.141,564.129 158.141,565.629 158.5,567.5 Z"/></g>
<g><path style="opacity:1" fill="#b4b9b9" d="M 145.5,571.5 C 147.5,571.5 149.5,571.5 151.5,571.5C 151.37,583.18 150.87,594.847 150,606.5C 132.15,612.087 114.816,619.087 98,627.5C 108.411,604.416 124.244,585.749 145.5,571.5 Z"/></g>
<g><path style="opacity:1" fill="#bdbdbd" d="M 524.5,663.5 C 505.404,663.403 486.404,663.403 467.5,663.5C 464.413,659.421 462.58,654.754 462,649.5C 461.087,638.413 461.587,627.413 463.5,616.5C 480.652,615.753 497.819,615.086 515,614.5C 518.95,614.407 522.784,614.907 526.5,616C 527.333,616.833 528.167,617.667 529,618.5C 529.667,631.167 529.667,643.833 529,656.5C 527.988,659.202 526.488,661.535 524.5,663.5 Z"/></g>
<g><path style="opacity:1" fill="#969696" d="M 438.5,616.5 C 426.832,616.796 415.165,617.13 403.5,617.5C 415.138,615.612 426.805,615.279 438.5,616.5 Z"/></g>
<g><path style="opacity:1" fill="#bdbdbd" d="M 593.5,598.5 C 594.859,599.007 595.859,600.007 596.5,601.5C 597.417,627.17 586.75,646.337 564.5,659C 553.526,665.757 547.026,662.923 545,650.5C 544.094,639.441 544.427,628.441 546,617.5C 547.833,615.667 549.667,613.833 551.5,612C 559.015,611.128 566.349,609.461 573.5,607C 580.288,604.029 586.955,601.196 593.5,598.5 Z"/></g>
<g><path style="opacity:1" fill="#dfdfdf" d="M 585.5,610.5 C 586.5,610.5 587.5,610.5 588.5,610.5C 587.218,619.299 584.552,627.632 580.5,635.5C 574.686,640.146 569.02,644.979 563.5,650C 560.83,650.793 558.33,651.96 556,653.5C 554.118,652.907 553.118,651.573 553,649.5C 550.628,639.328 551.128,629.328 554.5,619.5C 563.253,617.588 571.919,615.588 580.5,613.5C 582.693,613.229 584.359,612.229 585.5,610.5 Z"/></g>
<g><path style="opacity:1" fill="#969696" d="M 201.5,617.5 C 213.838,617.333 226.171,617.5 238.5,618C 241.518,621.04 242.852,624.706 242.5,629C 241.82,638.823 241.32,648.656 241,658.5C 238.897,662.934 235.397,665.434 230.5,666C 214.801,666.862 199.134,666.529 183.5,665C 177.439,661.729 174.272,656.562 174,649.5C 173.072,642.06 173.406,634.726 175,627.5C 177.894,624.639 181.061,622.139 184.5,620C 190.331,619.29 195.998,618.457 201.5,617.5 Z"/></g>
<g><path style="opacity:1" fill="#e0e0e0" d="M 505.5,622.5 C 510.833,622.5 516.167,622.5 521.5,622.5C 521.838,632.883 521.338,643.216 520,653.5C 519.5,654 519,654.5 518.5,655C 503.489,655.833 488.489,655.666 473.5,654.5C 472.194,653.088 471.36,651.421 471,649.5C 470.333,641.5 470.333,633.5 471,625.5C 471.75,624.874 472.584,624.374 473.5,624C 484.341,623.83 495.008,623.33 505.5,622.5 Z"/></g>
<g><path style="opacity:1" fill="#b5baba" d="M 201.5,625.5 C 212.415,625.18 223.248,625.513 234,626.5C 233.901,635.484 233.568,644.484 233,653.5C 232.487,655.521 231.32,657.021 229.5,658C 215.5,658.667 201.5,658.667 187.5,658C 184.127,656.694 182.294,654.194 182,650.5C 181.333,644.833 181.333,639.167 182,633.5C 182.792,631.413 183.959,629.579 185.5,628C 191.025,627.48 196.358,626.647 201.5,625.5 Z"/></g>
<g><path style="opacity:1" fill="#bebebe" d="M 438.5,616.5 C 442.33,617.485 445.163,619.819 447,623.5C 447.667,635.5 447.667,647.5 447,659.5C 445.924,662.079 444.091,663.746 441.5,664.5C 433.937,664.228 426.603,664.895 419.5,666.5C 412.094,666.848 404.761,666.348 397.5,665C 395.29,663.491 393.457,661.658 392,659.5C 391.333,647.5 391.333,635.5 392,623.5C 394.727,619.387 398.56,617.387 403.5,617.5C 415.165,617.13 426.832,616.796 438.5,616.5 Z"/></g>
<g><path style="opacity:1" fill="#e0e0e0" d="M 420.5,623.5 C 426.561,623.21 432.561,623.543 438.5,624.5C 439.499,635.48 439.832,646.48 439.5,657.5C 426.836,657.9 414.169,658.233 401.5,658.5C 400.213,647.821 400.213,637.154 401.5,626.5C 407.946,625.317 414.28,624.317 420.5,623.5 Z"/></g>
<g><path style="opacity:1" fill="#969696" d="M 295.5,612.5 C 305.172,612.334 314.839,612.5 324.5,613C 331.166,613.331 334.999,616.831 336,623.5C 336.667,634.167 336.667,644.833 336,655.5C 334.526,660.974 331.026,664.474 325.5,666C 304.83,666.253 284.163,665.919 263.5,665C 260.246,662.658 258.412,659.491 258,655.5C 256.638,644.863 256.304,634.196 257,623.5C 257.206,615.962 261.039,612.795 268.5,614C 277.676,613.83 286.676,613.33 295.5,612.5 Z"/></g>
<g><path style="opacity:1" fill="#b5baba" d="M 304.5,620.5 C 310.842,620.334 317.175,620.5 323.5,621C 324.931,621.465 326.097,622.299 327,623.5C 328.751,634.35 328.918,645.183 327.5,656C 307.259,657.476 286.925,657.976 266.5,657.5C 265.756,649.19 265.089,640.856 264.5,632.5C 264.449,629.334 265.116,626.334 266.5,623.5C 267.376,622.749 268.376,622.249 269.5,622C 281.341,621.831 293.007,621.331 304.5,620.5 Z"/></g>
<g><path style="opacity:1" fill="#969797" d="M 146.5,630.5 C 152.21,629.275 156.71,630.941 160,635.5C 160.716,644.103 159.55,652.436 156.5,660.5C 152.014,665.163 146.514,667.163 140,666.5C 127.166,665.181 114.333,665.181 101.5,666.5C 94.7819,667.585 91.2819,664.918 91,658.5C 108.283,646.584 126.783,637.251 146.5,630.5 Z"/></g>
<g><path style="opacity:1" fill="#b6b7b8" d="M 145.5,639.5 C 147.5,639.5 149.5,639.5 151.5,639.5C 151.666,644.179 151.499,648.845 151,653.5C 149.522,657.48 146.688,659.146 142.5,658.5C 131.179,657.782 119.845,657.282 108.5,657C 116.894,651.598 125.894,647.598 135.5,645C 139.024,643.407 142.358,641.573 145.5,639.5 Z"/></g>
<g><path style="opacity:1" fill="#9a9a9a" d="M 524.5,663.5 C 505.5,664.833 486.5,664.833 467.5,663.5C 486.404,663.403 505.404,663.403 524.5,663.5 Z"/></g>
<g><path style="opacity:1" fill="#474747" d="M 441.5,664.5 C 434.354,665.616 427.02,666.283 419.5,666.5C 426.603,664.895 433.937,664.228 441.5,664.5 Z"/></g>
<g><path style="opacity:1" fill="#38383f" d="M 634.5,659.5 C 634.5,661.5 634.5,663.5 634.5,665.5C 637.167,665.5 639.833,665.5 642.5,665.5C 639.713,666.477 636.713,666.81 633.5,666.5C 633.198,663.941 633.532,661.607 634.5,659.5 Z"/></g>
<g><path style="opacity:1" fill="#394041" d="M 559.5,677.5 C 556.855,679.31 553.855,680.31 550.5,680.5C 550.804,679.85 551.137,679.183 551.5,678.5C 554.086,677.52 556.753,677.187 559.5,677.5 Z"/></g>
<g><path style="opacity:1" fill="#666666" d="M 1.5,718.5 C 3.14363,718.81 4.14363,719.81 4.5,721.5C 2.85637,721.19 1.85637,720.19 1.5,718.5 Z"/></g>
<g><path style="opacity:1" fill="#878787" d="M 646.5,721.5 C 642.343,722.449 638.01,723.116 633.5,723.5C 633.918,722.778 634.584,722.278 635.5,722C 639.152,721.501 642.818,721.335 646.5,721.5 Z"/></g>
</svg>
