<?xml version="1.0" encoding="UTF-8" standalone="no"?>
<!-- Created with Inkscape (http://www.inkscape.org/) -->

<svg
   width="81.516602mm"
   height="81.617226mm"
   viewBox="0 0 81.516602 81.617226"
   version="1.1"
   id="svg1"
   xml:space="preserve"
   xmlns="http://www.w3.org/2000/svg"
   xmlns:svg="http://www.w3.org/2000/svg"><defs
     id="defs1" /><g
     id="layer1"
     transform="translate(-56.942275,-74.399253)"><g
       id="g2"><path
         style="fill:#ff5e1f"
         d="m 56.965271,155.91209 c -0.02228,-0.0582 -0.02966,-16.90794 -0.0164,-37.44384 l 0.02412,-37.337996 0.188709,-0.762 c 0.56831,-2.294814 1.986638,-3.946281 4.265216,-4.966316 1.072947,-0.480319 1.81546,-0.694301 3.028594,-0.872799 0.782739,-0.11517 5.018973,-0.129885 37.39245,-0.129885 33.21396,0 36.51433,0.01209 36.56109,0.133925 0.0283,0.07366 0.0507,16.618583 0.0498,36.766501 -0.002,40.1253 0.0321,37.48054 -0.50049,39.13805 -0.85689,2.66669 -3.32345,4.85416 -6.14823,5.45254 -0.51334,0.10874 -5.3409,0.1249 -37.696561,0.12618 -29.609294,0.001 -37.116013,-0.0199 -37.148341,-0.10436 z m 73.538719,-2.43722 c 1.66903,-0.20405 2.96461,-0.76532 3.89985,-1.68948 0.84438,-0.83438 1.3,-1.76455 1.51846,-3.10004 0.0684,-0.41813 0.0943,-21.91617 0.0834,-69.227263 l -6.2e-4,-2.688166 -35.28483,0.0048 c -19.40666,0.0026 -35.665836,0.03474 -36.131503,0.07139 -1.112781,0.08757 -1.910784,0.338691 -2.678289,0.842828 -0.850333,0.558541 -1.421222,1.147777 -1.784828,1.842187 -0.447199,0.854052 -0.569718,1.380947 -0.659195,2.834867 -0.04828,0.784525 -0.08115,15.23078 -0.08248,36.250477 l -0.0022,34.94617 h 35.20239 c 23.765695,0 35.435475,-0.0285 35.919835,-0.0877 z M 98.667102,138.1976 v -13.50735 l 10.858498,-3.9e-4 c 9.28679,-3.3e-4 10.94413,-0.0186 11.45008,-0.12627 1.65482,-0.35216 3.5471,-1.21502 4.66956,-2.12927 0.25759,-0.20981 0.47461,-0.36886 0.48227,-0.35344 0.008,0.0154 -0.005,5.13344 -0.029,11.37337 -0.0428,11.33282 -0.0431,11.34605 -0.22712,11.99273 -0.38962,1.36912 -1.0811,2.6883 -1.98028,3.7779 -0.88694,1.07477 -1.91047,1.74719 -3.34086,2.19482 l -0.75884,0.23748 -10.56217,0.0239 -10.562168,0.0239 z m 8.360838,11.20954 c -0.13622,-0.0793 -0.14817,-0.30444 -0.14817,-2.79143 v -2.70512 h -2.921 -2.921 v 2.794 2.794 l 3.06917,-0.003 c 2.12642,-0.002 3.02365,-0.0291 2.921,-0.0889 z m 8.14916,-2.70255 v -2.794 h -3.09033 -3.09033 v 2.794 2.794 h 3.09033 3.09033 z m 3.302,2.62299 c 1.52479,-0.23567 3.55798,-1.76476 4.44741,-3.34472 0.52295,-0.92896 0.97126,-2.39448 0.97126,-3.17502 v -0.24118 l -0.78317,0.37023 c -1.2941,0.61176 -3.10777,0.9737 -4.8792,0.9737 h -0.94163 v 2.75166 2.75167 l 0.3175,-6.4e-4 c 0.17463,-3.5e-4 0.56515,-0.0389 0.86783,-0.0857 z m -11.59933,-10.66633 v -2.794 h -2.921 -2.921 v 2.794 2.794 h 2.921 2.921 z m 8.29733,0 v -2.794 h -3.09033 -3.09033 v 2.794 2.794 h 3.09033 3.09033 z m 5.79895,2.50872 c 1.00294,-0.26478 1.94704,-0.69603 2.56136,-1.16998 l 0.44503,-0.34333 v -2.36037 c 0,-1.2982 -0.0203,-2.36037 -0.0451,-2.36037 -0.0248,0 -0.23465,0.096 -0.46627,0.2134 -0.90643,0.45932 -2.69225,0.70996 -5.09775,0.71546 l -1.0795,0.002 v 2.80377 2.80377 l 1.41817,-0.0407 c 1.17392,-0.0337 1.56386,-0.0792 2.26411,-0.26408 z m -14.09628,-10.89072 v -3.13266 h -2.921 -2.921 v 3.13266 3.13267 h 2.921 2.921 z m 8.29733,0.39282 c 0,-1.50692 0.0242,-2.91662 0.0538,-3.13267 l 0.0538,-0.39281 h -3.14418 -3.14417 v 3.13266 3.13267 h 3.09033 3.09033 z m 6.58125,2.50237 c 0.89279,-0.19646 1.65262,-0.51755 1.99125,-0.84148 l 0.23284,-0.22272 v -2.87188 c 0,-2.70234 -0.009,-2.86822 -0.14817,-2.8098 -0.40462,0.16955 -1.40407,0.46306 -1.9861,0.58326 -0.4865,0.10047 -1.14912,0.13477 -2.6035,0.13477 h -1.9509 v 3.14198 3.14199 l 1.8415,-0.0421 c 1.41637,-0.0324 2.02194,-0.0818 2.62308,-0.21406 z m 1.76645,18.4081 c 0.0278,-0.0724 0.25998,-0.22752 0.51601,-0.34474 0.54444,-0.24925 1.56086,-1.19675 2.09278,-1.95088 0.84408,-1.19669 1.39638,-2.52255 1.61795,-3.88408 0.12883,-0.79172 0.12993,-0.98982 0.12634,-22.93848 l -7.8e-4,-4.72456 -0.42388,0.50935 c -0.65069,0.78188 -1.31391,1.40237 -2.25719,2.11178 -1.47281,1.10763 -2.93703,1.77594 -5.1574,2.35397 l -0.92453,0.24069 H 108.91177 98.709436 l -0.02149,-10.85362 -0.02149,-10.85361 -1.104017,-0.65033 c -0.60721,-0.35768 -1.09284,-0.658459 -1.07918,-0.668403 0.01366,-0.0099 1.198051,-0.695654 2.631979,-1.523802 1.433922,-0.828147 2.595972,-1.538916 2.582332,-1.579486 -0.0136,-0.04057 -1.60596,-0.985076 -3.538474,-2.098902 -1.932516,-1.113826 -3.583947,-2.076686 -3.669846,-2.139689 -0.141184,-0.103553 0.0397,-0.227354 1.883918,-1.289417 1.122053,-0.646176 2.096077,-1.217138 2.164498,-1.268805 0.107063,-0.08085 0.125961,-0.88759 0.135582,-5.78797 l 0.01118,-5.694031 17.750162,0.02136 17.75017,0.02137 v 34.797995 c 0,27.40526 -0.0223,34.90402 -0.10521,35.29705 -0.23975,1.13713 -0.84856,1.9813 -1.74708,2.42251 -0.99798,0.49004 -1.35235,0.52823 -5.28095,0.56911 -3.21052,0.0334 -3.57206,0.0237 -3.52673,-0.0944 z m 6.82091,-2.20544 c 0.883,-0.26799 1.40274,-0.81389 1.63293,-1.71515 0.12077,-0.47285 0.13168,-2.77884 0.11113,-23.495 l -0.0228,-22.9707 -0.22948,-1.269996 c -0.63212,-3.498444 -1.71484,-5.927618 -4.00016,-8.974667 -0.41911,-0.5588 -0.86079,-1.1684 -0.98152,-1.354666 -0.56862,-0.877295 -2.99572,-3.089248 -4.69372,-4.277644 -3.475,-2.432088 -7.44538,-4.018588 -11.26066,-4.499581 -0.44723,-0.05638 -2.6419,-0.109951 -5.31284,-0.12968 l -4.55083,-0.03361 v 5.154258 5.154257 l -1.242899,0.713002 c -0.683594,0.392152 -1.255488,0.752285 -1.270876,0.800297 -0.01539,0.04801 1.611195,1.033502 3.614635,2.189979 2.00343,1.156478 3.66271,2.135217 3.68729,2.174977 0.0246,0.03976 -0.088,0.127717 -0.2501,0.195458 -0.16213,0.06774 -0.95424,0.520201 -1.76025,1.005466 -0.80601,0.485264 -1.52262,0.906879 -1.59247,0.936922 -0.0699,0.03004 -0.37465,0.206337 -0.67733,0.391765 -0.30268,0.185428 -0.71232,0.422011 -0.9103,0.525741 l -0.35996,0.188602 0.38113,0.23722 0.38113,0.23723 v 9.99051 9.99051 h 8.6819 c 9.53576,0 9.15591,0.0185 10.69273,-0.52173 1.8573,-0.65292 3.03619,-1.39336 4.42115,-2.77686 1.59012,-1.58842 3.00477,-3.90823 3.72985,-6.11631 0.43975,-1.33922 1.05844,-4.34692 1.2553,-6.10263 0.0968,-0.86341 0.15219,-1.00009 0.31499,-0.77745 0.17186,0.23502 0.16766,42.45987 -0.004,43.10564 -0.14457,0.54298 -0.50326,1.33523 -0.75884,1.67609 -0.35405,0.47219 -0.35485,0.46932 0.13137,0.46833 0.24722,-5e-4 0.62692,-0.0548 0.84377,-0.12057 z m -14.7967,-30.44551 c -1.84106,-0.32982 -3.66179,-1.33787 -5.19791,-2.87783 -2.33818,-2.34404 -3.9065,-5.68218 -4.54546,-9.67498 -0.21544,-1.34625 -0.2184,-5.19721 -0.005,-6.540658 0.35862,-2.257935 0.9903,-4.202214 2.02067,-6.219535 1.25121,-2.449688 3.0731,-4.381422 5.13821,-5.448013 0.43171,-0.222969 1.00251,-0.480642 1.26843,-0.572606 3.91906,-1.355305 8.12979,0.414188 10.90087,4.580927 0.69241,1.041137 1.63827,2.984078 2.01254,4.134055 0.71936,2.210272 1.02241,4.22639 1.02037,6.7883 -0.003,3.42047 -0.61338,6.25925 -1.92148,8.93234 -1.03124,2.10734 -2.5192,3.98598 -4.07374,5.14333 -0.83162,0.61914 -2.32099,1.35685 -3.22172,1.59576 -0.76585,0.20314 -2.65531,0.29156 -3.39576,0.15891 z m 2.12576,-2.54078 c 4.37658,-0.62339 7.80502,-5.67109 8.1614,-12.01606 0.50091,-8.917977 -4.99439,-15.983018 -10.92687,-14.048162 -2.59491,0.846319 -4.93841,3.506888 -6.06919,6.890333 -0.71121,2.12802 -0.96609,3.694229 -0.97139,5.968999 -0.007,2.95574 0.5641,5.56576 1.72358,7.87851 1.37024,2.73316 3.77422,4.84321 5.9658,5.23638 1.08884,0.19534 1.31087,0.20478 2.11667,0.09 z m -1.778,-1.60221 c -1.08782,-0.23507 -2.2195,-0.91396 -3.14096,-1.88423 -1.66084,-1.74882 -2.77808,-4.40351 -3.16269,-7.51489 -0.11334,-0.91694 -0.11437,-3.22347 -0.002,-4.15311 0.42506,-3.51177 1.76048,-6.393434 3.75562,-8.104167 0.61473,-0.527105 1.61217,-1.067644 2.3013,-1.24714 0.63096,-0.164344 1.80751,-0.165907 2.43207,-0.0032 0.53628,0.139685 1.46698,0.588501 1.92283,0.927261 0.60234,0.447615 1.4684,1.380919 1.95564,2.107463 1.5096,2.251068 2.2777,5.08251 2.2777,8.396363 0,2.72731 -0.45676,4.83789 -1.52156,7.03076 -1.06253,2.18819 -2.63025,3.74253 -4.32044,4.28355 -0.61184,0.19585 -1.94079,0.28171 -2.49767,0.16137 z m 2.53482,-2.67566 c 1.55575,-0.76944 2.88021,-2.91554 3.43518,-5.56623 0.50299,-2.4024 0.36579,-5.41119 -0.34921,-7.65837 -0.48522,-1.524981 -1.46421,-3.12005 -2.34135,-3.814755 -1.5354,-1.216064 -3.32533,-1.049907 -4.74067,0.44007 -0.32655,0.343773 -0.7543,0.895325 -0.95055,1.22567 -1.27532,2.146679 -1.87506,5.572805 -1.48648,8.491745 0.4678,3.51401 1.95374,6.15491 3.93287,6.98969 0.40502,0.17083 0.58345,0.19542 1.23539,0.17027 0.63617,-0.0246 0.84503,-0.0705 1.26482,-0.27809 z m -1.93492,-6.57498 c -0.49098,-0.13251 -1.01718,-0.69676 -1.14442,-1.22716 -0.31768,-1.32423 1.00431,-2.45008 2.26058,-1.92517 0.87683,0.36636 1.26483,1.3457 0.87405,2.20618 -0.35592,0.78373 -1.16568,1.16869 -1.99021,0.94615 z m 15.5856,-24.845097 c -0.0161,-0.01611 -3.09294,-0.01954 -6.8374,-0.0076 l -6.8081,0.02167 1.15759,0.563696 c 4.7815,2.328376 8.36038,5.370579 11.10323,9.438238 0.34958,0.51843 0.80096,1.24233 1.00306,1.608666 l 0.36745,0.666066 0.0217,-6.130717 c 0.0119,-3.371895 0.009,-6.143898 -0.008,-6.160007 z M 62.937767,151.54509 c 0,-0.20018 0.43683,-2.2215 0.585671,-2.71004 0.88203,-2.89509 1.263317,-3.90166 2.170137,-5.72899 1.878337,-3.78503 4.248102,-6.91503 7.369199,-9.73327 3.540902,-3.19732 7.821912,-5.64867 12.397468,-7.09891 0.675844,-0.21422 1.571194,-0.46901 1.989667,-0.56621 0.418473,-0.0972 1.076682,-0.25276 1.462687,-0.34569 1.608014,-0.38715 4.409754,-0.67073 6.626712,-0.67073 h 1.434982 l -0.02143,13.44084 -0.02143,13.44083 -16.996835,0.0214 c -9.348258,0.0118 -16.996834,-0.0104 -16.996834,-0.0492 z m 12.530668,-4.08421 v -1.95304 l -0.1905,0.0569 c -0.63226,0.1889 -3.592195,1.4141 -4.593167,1.90125 -1.086337,0.52869 -2.787562,1.53559 -3.08731,1.82727 -0.107345,0.10446 0.412283,0.12064 3.8735,0.12064 h 3.997477 z m 9.736667,-0.80881 v -2.76186 l -1.5875,0.0418 c -1.659653,0.0437 -2.534392,0.17201 -4.931834,0.72359 l -1.058333,0.2435 -0.02255,2.25742 -0.02255,2.25743 h 3.811383 3.811383 z m 9.652,0.0102 v -2.75166 h -3.767667 -3.767667 v 2.75166 2.75167 h 3.767667 3.767667 z m -24.595668,-1.78074 c 1.560048,-0.7636 2.569254,-1.16426 4.148667,-1.64703 l 1.016,-0.31055 0.02239,-2.59701 c 0.017,-1.97183 -0.002,-2.597 -0.07892,-2.597 -0.162175,0 -2.819758,1.08101 -3.838751,1.56146 l -0.93195,0.43941 -0.884776,1.34302 c -1.096436,1.66431 -2.881658,5.1808 -2.881658,5.67623 0,0.0647 0.426511,-0.1606 0.994833,-0.52542 0.547159,-0.35123 1.642534,-0.95563 2.434167,-1.34311 z m 8.466667,-2.75027 c 2.147174,-0.44168 3.397739,-0.60718 4.931834,-0.65267 l 1.545167,-0.0458 V 138.65 135.86725 h -0.941634 c -1.336868,0 -3.674969,0.38591 -6.043367,0.99747 l -0.592666,0.15304 -0.02237,2.6905 c -0.02109,2.53752 -0.01387,2.68785 0.127,2.64382 0.08215,-0.0257 0.530365,-0.12504 0.996031,-0.22084 z m 16.129001,-3.46999 v -2.794 h -3.767667 -3.767667 v 2.794 2.794 h 3.767667 3.767667 z m -19.714098,-3.4853 c 0.332383,-0.0996 0.525239,-0.41291 0.357332,-0.58054 -0.07796,-0.0778 -0.793902,0.46463 -0.793902,0.60153 0,0.0998 0.0397,0.0979 0.43657,-0.021 z m 3.616129,-0.96456 c 1.874108,-0.42217 3.912458,-0.72652 5.197135,-0.77598 l 1.248834,-0.0481 v -2.22761 -2.22761 l -0.3175,0.11343 c -1.973673,0.70509 -4.72712,2.11531 -6.688667,3.42569 l -0.529167,0.3535 v 0.8016 c 0,0.44088 0.02883,0.8016 0.06407,0.8016 0.03524,0 0.496622,-0.0974 1.025292,-0.21653 z m 16.097969,-3.98278 v -3.18332 l -0.486833,0.0476 c -0.267759,0.0262 -0.791634,0.0704 -1.164167,0.0982 -1.281924,0.0958 -3.050979,0.38413 -4.466167,0.72798 l -1.418167,0.34457 v 2.57414 2.57415 h 3.767667 3.767667 z m -33.443118,-13.603 c 1.84e-4,-21.207556 0.03026,-33.189313 0.08475,-33.76439 0.232167,-2.45029 1.05583,-3.669112 2.84072,-4.203577 0.473633,-0.141824 1.446711,-0.152101 16.499373,-0.174263 8.79783,-0.01295 16.026213,0.0066 16.063072,0.04347 0.03686,0.03686 0.07095,2.447454 0.07577,5.356878 l 0.0088,5.289862 -1.001157,0.564294 c -2.31815,1.306605 -4.460628,2.574321 -4.487483,2.655268 -0.01586,0.04779 1.616644,1.038393 3.627775,2.201334 2.011132,1.162941 3.671991,2.162063 3.690799,2.220271 0.01881,0.05821 -0.03161,0.105833 -0.11203,0.105833 -0.08042,0 -0.619587,0.276225 -1.198141,0.613834 -0.578553,0.337608 -1.686428,0.982087 -2.461944,1.432174 -0.775515,0.450088 -1.420216,0.850138 -1.432669,0.889 -0.01245,0.03886 0.738948,0.507992 1.66978,1.042512 l 1.692422,0.97185 9.32e-4,10.28882 c 5.12e-4,5.65884 0.02455,10.43168 0.05341,10.60631 l 0.05248,0.3175 h -1.35345 c -2.765436,0 -5.100951,0.27488 -7.98204,0.93947 -5.485177,1.26527 -10.495117,3.73917 -14.816668,7.31645 -1.758543,1.45568 -3.994256,3.79218 -5.392438,5.63552 -2.181095,2.87552 -4.085478,6.45478 -5.087149,9.56122 -0.468607,1.45327 -0.760053,2.40859 -0.820101,2.68817 -0.03251,0.15134 -0.09419,0.27517 -0.137074,0.27517 -0.04739,0 -0.07786,-12.89499 -0.07769,-32.87298 z m 3.471117,19.23029 c 1.136728,-1.56322 2.128355,-2.71374 3.680808,-4.27059 3.07181,-3.08052 6.144271,-5.2852 10.063598,-7.22126 1.389752,-0.68651 3.799515,-1.69485 4.670595,-1.95436 0.186266,-0.0555 0.414866,-0.13678 0.508,-0.18063 0.283132,-0.13332 2.399931,-0.69136 3.979333,-1.04905 1.685419,-0.38169 5.149285,-0.80676 6.57436,-0.80676 h 0.496102 l -0.02156,-8.69613 -0.02156,-8.69614 -2.639316,-1.52736 c -1.451623,-0.84005 -2.65706,-1.546416 -2.678749,-1.569699 -0.02169,-0.02328 1.137429,-0.721992 2.575816,-1.552686 1.438387,-0.830694 2.615249,-1.539507 2.615249,-1.57514 0,-0.03563 -1.609725,-0.990846 -3.577167,-2.122695 -1.967442,-1.131849 -3.625054,-2.101058 -3.683582,-2.153799 -0.08178,-0.07369 0.761165,-0.597598 3.640667,-2.262765 l 3.747082,-2.166874 0.02205,-3.743566 0.02205,-3.743565 -4.594054,0.04319 c -2.54257,0.0239 -4.972134,0.086 -5.44072,0.139055 -2.527684,0.286198 -5.765268,1.318253 -8.160572,2.60137 -1.841462,0.986435 -3.235193,1.909677 -4.751096,3.147243 -1.017704,0.830841 -2.718126,2.517766 -3.042719,3.018565 -0.120728,0.186267 -0.562411,0.795867 -0.981517,1.354667 -0.879919,1.173208 -1.793927,2.601315 -2.248795,3.513666 -0.780996,1.566481 -1.410789,3.508404 -1.688704,5.207 -0.161542,0.987333 -0.166232,1.530973 -0.166248,19.268723 -1e-5,10.039 0.0283,18.28104 0.06291,18.31565 0.03461,0.0346 0.120334,-0.0247 0.1905,-0.13173 0.07017,-0.10706 0.451426,-0.64001 0.847243,-1.18433 z m 11.354932,-17.01238 c -1.81326,-0.32153 -3.640003,-1.33633 -5.174265,-2.87443 -2.338184,-2.34403 -3.906499,-5.68217 -4.545467,-9.67498 -0.215441,-1.34625 -0.218395,-5.19721 -0.005,-6.540655 0.358623,-2.257934 0.990303,-4.202214 2.020674,-6.219534 1.251208,-2.449688 3.073094,-4.381423 5.138211,-5.448014 1.229983,-0.635261 1.98697,-0.865897 3.233599,-0.985199 3.301865,-0.315986 6.648319,1.554107 8.935697,4.993521 0.692406,1.041136 1.63827,2.984077 2.012542,4.134054 0.719357,2.210272 1.022405,4.226387 1.020367,6.788307 -0.0027,3.42046 -0.613384,6.25924 -1.921478,8.93233 -1.031241,2.10734 -2.519206,3.98598 -4.073744,5.14334 -0.831617,0.61914 -2.320984,1.35684 -3.221717,1.59576 -0.774464,0.20542 -2.655472,0.29096 -3.419402,0.1555 z m 2.149402,-2.45271 c 4.376583,-0.62339 7.80502,-5.67109 8.161403,-12.01606 0.500904,-8.917977 -4.99439,-15.983018 -10.926874,-14.048162 -2.59491,0.846319 -4.93841,3.506888 -6.069192,6.890333 -0.711205,2.12802 -0.966089,3.694229 -0.971392,5.968999 -0.0069,2.95574 0.564103,5.56576 1.723583,7.87851 1.370244,2.73316 3.774221,4.84321 5.965805,5.23638 1.088837,0.19534 1.31087,0.20478 2.116667,0.09 z m -1.778,-1.51755 c -1.087816,-0.23507 -2.219497,-0.91395 -3.140961,-1.88423 -1.660843,-1.74881 -2.778084,-4.4035 -3.162688,-7.51489 -0.113345,-0.91694 -0.11437,-3.22346 -0.0018,-4.15311 0.425064,-3.511764 1.76048,-6.393427 3.755621,-8.10416 0.614735,-0.527105 1.612173,-1.067644 2.301305,-1.24714 0.63096,-0.164344 1.80751,-0.165907 2.432066,-0.0032 0.536287,0.139685 1.466985,0.588501 1.922836,0.92726 0.602333,0.447616 1.468397,1.380919 1.955632,2.107464 1.50961,2.251068 2.277702,5.082506 2.277702,8.396366 0,2.72731 -0.45676,4.83789 -1.521556,7.03075 -1.062528,2.1882 -2.630249,3.74253 -4.320445,4.28356 -0.611839,0.19584 -1.94079,0.2817 -2.497666,0.16136 z m 2.534822,-2.67565 c 0.854395,-0.42257 1.796995,-1.42369 2.322774,-2.46699 l 0.179223,-0.35563 -0.740409,-0.4006 c -0.407226,-0.22033 -1.027866,-0.57745 -1.379201,-0.7936 l -0.638791,-0.393 -0.316978,0.21036 c -0.252816,0.16777 -0.420171,0.20938 -0.82679,0.20555 -1.267495,-0.0119 -2.172678,-1.12985 -1.976127,-2.44054 0.05677,-0.37856 0.04682,-0.40289 -0.32106,-0.78545 -0.854863,-0.88897 -1.810424,-2.17018 -2.574034,-3.45123 -0.05275,-0.0885 -0.12326,-0.13483 -0.156696,-0.10297 -0.03344,0.0319 -0.08026,0.67955 -0.104055,1.43933 -0.140019,4.47106 1.532674,8.38842 4.031933,9.44258 0.405015,0.17084 0.583447,0.19543 1.235389,0.17027 0.636173,-0.0245 0.845029,-0.0705 1.264822,-0.27808 z m 3.426014,-5.51919 c 0.396385,-1.70692 0.4131,-4.05814 0.04394,-6.18141 -0.282956,-1.627479 -1.016604,-3.34889 -1.902242,-4.463372 -0.562574,-0.70794 -0.994599,-1.068836 -1.624958,-1.357424 -1.416037,-0.648283 -2.74352,-0.336216 -3.943492,0.927042 -0.653616,0.688088 -1.37042,1.821523 -1.37042,2.166955 0,0.604718 0.751664,2.152477 1.693334,3.486759 1.033686,1.46467 3.135469,3.46735 4.747206,4.52338 0.845928,0.55425 2.110465,1.29849 2.208182,1.29961 0.03028,3.4e-4 0.09708,-0.18035 0.148448,-0.40154 z M 64.160316,91.988668 c 0.136885,-0.244428 0.531111,-0.863514 0.876058,-1.375747 2.727209,-4.049807 6.318199,-7.100981 11.0948,-9.426971 l 1.157594,-0.563696 -2.836334,-0.02188 c -1.559983,-0.01204 -4.188883,0.0091 -5.842,0.04692 -2.853885,0.06533 -3.026991,0.0784 -3.427945,0.258852 -0.516048,0.232248 -0.790052,0.475542 -0.944864,0.838966 -0.262622,0.61651 -0.453191,3.675607 -0.453191,7.274832 0,1.877321 0.02858,3.413272 0.0635,3.413225 0.03493,-4.7e-5 0.175497,-0.200072 0.312382,-0.4445 z"
         id="path4" /><path
         style="fill:rgba(0,0,0,0.4)"
         d="m 59.383976,118.61642 c 0.0013,-21.019693 0.0342,-35.465948 0.08248,-36.250473 0.08948,-1.45392 0.211996,-1.980815 0.659195,-2.834867 0.363606,-0.69441 0.934495,-1.283646 1.784828,-1.842187 0.767505,-0.504137 1.565508,-0.755259 2.678289,-0.842828 0.465667,-0.03665 16.724843,-0.06877 36.131502,-0.07139 l 35.28483,-0.0048 6.2e-4,2.688166 c 0.0109,47.311089 -0.015,68.809129 -0.0834,69.227259 -0.45365,2.77321 -2.30392,4.40876 -5.41831,4.78952 -0.48436,0.0592 -12.15414,0.0877 -35.919832,0.0877 h -35.20239 z m 61.166304,32.80328 c 1.43039,-0.44763 2.45392,-1.12005 3.34086,-2.19482 0.89918,-1.0896 1.59066,-2.40878 1.98028,-3.7779 0.18403,-0.64668 0.18428,-0.65991 0.22712,-11.99273 0.0236,-6.23993 0.0366,-11.35795 0.029,-11.37337 -0.008,-0.0154 -0.22468,0.14363 -0.48227,0.35344 -1.12246,0.91425 -3.01474,1.77711 -4.66956,2.12927 -0.50595,0.10767 -2.16329,0.12594 -11.45008,0.12627 l -10.858498,3.9e-4 v 13.50735 13.50736 l 10.562168,-0.0239 10.56217,-0.0239 z m -19.51251,-4.71511 v -2.794 h 2.921 2.921 v 2.70512 c 0,2.48699 0.012,2.71209 0.14817,2.79143 0.10265,0.0598 -0.79458,0.0871 -2.921,0.0889 l -3.06917,0.003 z m 7.95867,0 v -2.794 h 3.09033 3.09033 v 2.794 2.794 h -3.09033 -3.09033 z m 8.29733,-0.0423 v -2.75166 h 0.94163 c 1.77143,0 3.5851,-0.36194 4.8792,-0.9737 l 0.78317,-0.37023 v 0.24118 c 0,0.78054 -0.44831,2.24606 -0.97126,3.17502 -1.08765,1.93207 -3.40328,3.42657 -5.31524,3.43042 l -0.3175,6.4e-4 z m -16.256,-8.001 v -2.794 h 2.921 2.921 v 2.794 2.794 h -2.921 -2.921 z m 7.95867,0 v -2.794 h 3.09033 3.09033 v 2.794 2.794 h -3.09033 -3.09033 z m 8.29733,0.01 v -2.80377 l 1.0795,-0.002 c 2.4055,-0.005 4.19132,-0.25614 5.09775,-0.71546 0.23162,-0.11737 0.44144,-0.2134 0.46627,-0.2134 0.0248,0 0.0451,1.06217 0.0451,2.36037 v 2.36037 l -0.44503,0.34333 c -0.61432,0.47395 -1.55842,0.9052 -2.56136,1.16998 -0.70025,0.18488 -1.09019,0.23036 -2.26411,0.26408 l -1.41817,0.0407 z m -16.256,-8.39177 v -3.13266 h 2.921 2.921 v 3.13266 3.13267 h -2.921 -2.921 z m 7.95867,0 v -3.13266 h 3.14417 3.14418 l -0.0538,0.39281 c -0.0296,0.21605 -0.0538,1.62575 -0.0538,3.13267 v 2.73985 h -3.09033 -3.09033 z m 8.29733,0.009 v -3.14198 h 1.9509 c 1.45438,0 2.117,-0.0343 2.6035,-0.13477 0.58203,-0.1202 1.58148,-0.41371 1.9861,-0.58326 0.13942,-0.0584 0.14817,0.10746 0.14817,2.8098 v 2.87188 l -0.23284,0.22272 c -0.33863,0.32393 -1.09846,0.64502 -1.99125,0.84148 -0.60114,0.13228 -1.20671,0.1817 -2.62308,0.21406 l -1.8415,0.0421 z m 13.92767,21.21245 c 1.61863,-0.37873 2.53456,-1.28107 2.85812,-2.81572 0.0829,-0.39303 0.10521,-7.89179 0.10521,-35.29705 V 78.590254 l -17.75017,-0.02137 -17.750165,-0.02136 -0.01118,5.694031 c -0.0096,4.90038 -0.02852,5.707125 -0.135582,5.78797 -0.06842,0.05167 -1.042445,0.622629 -2.164498,1.268805 -1.844221,1.062063 -2.025102,1.185864 -1.883918,1.289417 0.0859,0.063 1.73733,1.025863 3.669846,2.139689 1.932517,1.113826 3.524827,2.058332 3.538477,2.098902 0.0136,0.04057 -1.14841,0.751339 -2.582335,1.579486 -1.433928,0.828148 -2.618318,1.513858 -2.631979,1.523802 -0.01366,0.0099 0.47197,0.310724 1.07918,0.668404 l 1.104017,0.65033 0.02149,10.85361 0.02149,10.85362 h 10.202337 10.20233 l 0.92453,-0.24069 c 2.22037,-0.57803 3.68459,-1.24634 5.1574,-2.35397 0.94328,-0.70941 1.6065,-1.3299 2.25719,-2.11178 l 0.42388,-0.50935 7.8e-4,4.72456 c 0.004,21.94866 0.002,22.14676 -0.12634,22.93848 -0.22157,1.36153 -0.77387,2.68739 -1.61795,3.88408 -0.53192,0.75413 -1.54834,1.70163 -2.09278,1.95088 -0.25603,0.11722 -0.48824,0.27235 -0.51601,0.34474 -0.0453,0.11812 0.31621,0.1278 3.52673,0.0944 2.91842,-0.0304 3.68639,-0.0628 4.16991,-0.1759 z m -2.1065,-2.10827 c 0.0344,-0.0582 0.14941,-0.22174 0.25563,-0.3634 0.25558,-0.34087 0.61427,-1.13312 0.75884,-1.6761 0.17194,-0.64577 0.17614,-42.87062 0.004,-43.10564 -0.1628,-0.22264 -0.21818,-0.086 -0.31499,0.77745 -0.19686,1.75571 -0.81555,4.76341 -1.2553,6.10263 -0.72508,2.20808 -2.13973,4.52789 -3.72985,6.11631 -1.38496,1.3835 -2.56385,2.12394 -4.42115,2.77686 -1.53682,0.54026 -1.15697,0.52173 -10.69273,0.52173 h -8.6819 v -9.99051 -9.99051 l -0.38113,-0.23723 -0.38113,-0.23722 0.35996,-0.188597 c 0.19798,-0.10373 0.60762,-0.340313 0.9103,-0.525741 0.30268,-0.185428 0.60748,-0.361722 0.67733,-0.391765 0.0699,-0.03004 0.78646,-0.451658 1.59247,-0.936922 0.80601,-0.485265 1.59812,-0.937724 1.76025,-1.005466 0.16213,-0.06774 0.27467,-0.155697 0.2501,-0.195458 -0.0246,-0.03976 -1.68386,-1.018499 -3.68729,-2.174977 -2.00344,-1.156477 -3.630023,-2.141967 -3.614635,-2.189979 0.01539,-0.04801 0.587282,-0.408145 1.270876,-0.800297 l 1.242899,-0.713002 v -5.154257 -5.154258 l 4.55083,0.03361 c 5.68107,0.04196 6.55283,0.139573 9.35916,1.047933 2.75575,0.891989 4.87479,1.943917 7.21434,3.581328 1.698,1.188396 4.1251,3.400349 4.69372,4.277644 0.12073,0.186266 0.56241,0.795866 0.98152,1.354666 2.28532,3.047049 3.36804,5.476223 4.00016,8.974667 l 0.22948,1.269991 0.0228,22.9707 c 0.025,25.17295 0.0549,23.58096 -0.45772,24.3301 -0.40873,0.59728 -1.26359,0.99885 -2.13011,1.00062 -0.33666,6.9e-4 -0.43381,-0.0257 -0.387,-0.10492 z m -10.17017,-30.62007 c 0.90073,-0.23891 2.3901,-0.97662 3.22172,-1.59576 2.56677,-1.91096 4.62768,-5.3736 5.50105,-9.24257 0.36347,-1.61015 0.49261,-2.87317 0.49417,-4.8331 0.003,-3.45145 -0.58535,-6.198663 -1.90653,-8.906105 -1.50097,-3.075871 -3.39149,-5.090503 -5.87261,-6.258153 -1.93983,-0.912908 -4.14407,-1.034327 -6.15464,-0.339024 -2.55106,0.88222 -4.91845,3.10697 -6.40664,6.020619 -1.03037,2.017321 -1.66205,3.9616 -2.02067,6.219535 -0.21338,1.343448 -0.21042,5.194408 0.005,6.540658 0.63896,3.9928 2.20728,7.33094 4.54546,9.67498 1.53612,1.53996 3.35685,2.54801 5.19791,2.87783 0.74045,0.13265 2.62991,0.0442 3.39576,-0.15891 z m -2.667,-2.34894 c -1.87182,-0.28113 -3.13626,-0.93582 -4.53288,-2.34697 -1.9415,-1.96172 -3.23313,-4.8119 -3.73385,-8.23932 -0.19156,-1.31123 -0.19292,-3.93976 -0.003,-5.20746 0.49353,-3.288776 1.74429,-6.142145 3.53103,-8.055363 4.40067,-4.712203 10.57185,-2.704804 13.23027,4.303627 0.8405,2.215818 1.21519,4.849516 1.06651,7.496496 -0.35638,6.34497 -3.78482,11.39267 -8.1614,12.01606 -0.58979,0.084 -0.99351,0.0935 -1.397,0.0329 z m 2.11667,-1.79651 c 2.87853,-0.9214 5.18142,-4.61911 5.75318,-9.23775 0.11424,-0.9228 0.11431,-3.22943 1.3e-4,-4.15311 -0.39692,-3.211008 -1.57993,-5.974543 -3.26935,-7.637255 -0.72129,-0.709882 -1.02153,-0.93393 -1.74318,-1.300805 -0.77196,-0.392454 -1.39803,-0.542389 -2.26478,-0.542389 -0.89769,0 -1.52817,0.158901 -2.36186,0.595258 -2.55813,1.338938 -4.40863,4.682641 -4.9173,8.885191 -0.11253,0.92964 -0.1115,3.23617 0.002,4.15311 0.61168,4.94842 3.13779,8.71499 6.30365,9.39912 0.55688,0.12034 1.88583,0.0345 2.49767,-0.16137 z m -2.46306,-2.40647 c -1.97913,-0.83478 -3.46507,-3.47568 -3.93287,-6.98969 -0.23023,-1.72945 -0.14558,-3.38745 0.26867,-5.262483 0.69751,-3.157089 2.36246,-5.35666 4.29213,-5.670354 0.83289,-0.135396 1.84598,0.164766 2.6169,0.775352 0.87714,0.694705 1.85613,2.289774 2.34135,3.814755 0.715,2.24718 0.8522,5.25597 0.34921,7.65837 -0.55497,2.65069 -1.87943,4.79679 -3.43518,5.56623 -0.41979,0.20762 -0.62865,0.25354 -1.26482,0.27809 -0.65194,0.0251 -0.83037,5.6e-4 -1.23539,-0.17027 z m 1.78572,-6.794 c 1.26782,-0.65769 1.20486,-2.49414 -0.10427,-3.04113 -1.25627,-0.52491 -2.57826,0.60094 -2.26058,1.92517 0.12724,0.5304 0.65344,1.09465 1.14442,1.22716 0.37389,0.10092 0.90479,0.0525 1.22043,-0.1112 z m 13.98355,-13.109239 c -0.2021,-0.366336 -0.65348,-1.090236 -1.00306,-1.608666 -2.74285,-4.067659 -6.32173,-7.109862 -11.10323,-9.438238 l -1.15759,-0.563696 6.8081,-0.02167 c 3.74446,-0.01192 6.82129,-0.0085 6.8374,0.0076 0.0161,0.01611 0.0195,2.788112 0.008,6.160007 l -0.0217,6.130717 z m -34.747787,45.814569 0.02143,-13.44084 h -1.434982 c -2.216958,0 -5.018698,0.28358 -6.626712,0.67073 -0.386005,0.0929 -1.044214,0.2485 -1.462687,0.34569 -2.036357,0.47299 -4.646326,1.44563 -6.901474,2.57193 -6.558899,3.27576 -11.638958,8.3461 -14.85486,14.82646 -0.90682,1.82733 -1.288107,2.8339 -2.170137,5.72899 -0.148841,0.48854 -0.585671,2.50986 -0.585671,2.71004 0,0.0388 7.648576,0.061 16.996834,0.0492 l 16.996835,-0.0214 z m -29.355405,11.16119 c 0.299748,-0.29168 2.000973,-1.29858 3.08731,-1.82727 1.000972,-0.48715 3.960907,-1.71235 4.593167,-1.90125 l 0.1905,-0.0569 v 1.95304 1.95304 h -3.997477 c -3.461217,0 -3.980845,-0.0162 -3.8735,-0.12064 z m 10.007427,-2.13679 0.02255,-2.25742 1.058333,-0.2435 c 2.397442,-0.55158 3.272181,-0.67992 4.931834,-0.72359 l 1.5875,-0.0418 v 2.76186 2.76185 h -3.811383 -3.811383 z m 9.716883,-0.49424 v -2.75166 h 3.767667 3.767667 v 2.75166 2.75167 H 91.089435 87.321768 Z M 66.832434,146.75 c 0,-0.49543 1.785222,-4.01192 2.881658,-5.67623 l 0.884776,-1.34302 0.93195,-0.43941 c 1.018993,-0.48045 3.676576,-1.56146 3.838751,-1.56146 0.07692,0 0.09592,0.62517 0.07892,2.597 l -0.02239,2.59701 -1.016,0.31055 c -2.290931,0.70025 -4.769311,1.82602 -6.582834,2.99014 -0.568322,0.36482 -0.994833,0.59008 -0.994833,0.52542 z m 10.772636,-7.04178 0.02237,-2.6905 0.592666,-0.15304 c 2.368398,-0.61156 4.706499,-0.99747 6.043367,-0.99747 h 0.941634 v 2.78275 2.78275 l -1.545167,0.0458 c -1.088153,0.0323 -1.920795,0.1098 -2.815167,0.26216 -1.265243,0.21554 -2.828721,0.52262 -3.112698,0.61135 -0.140871,0.044 -0.148092,-0.1063 -0.127,-2.64382 z m 9.716698,-1.04701 v -2.794 h 3.767667 3.767667 v 2.794 2.794 H 91.089435 87.321768 Z M 74.706434,135.1969 c 0,-0.1369 0.715941,-0.67936 0.793902,-0.60153 0.167907,0.16763 -0.02495,0.48096 -0.357332,0.58054 -0.396866,0.11891 -0.43657,0.12082 -0.43657,0.021 z m 2.963334,-1.57062 v -0.8016 l 0.529167,-0.3535 c 1.961547,-1.31038 4.714994,-2.7206 6.688667,-3.42569 l 0.3175,-0.11343 v 2.22761 2.22761 l -1.248834,0.0481 c -1.284677,0.0495 -3.323027,0.35381 -5.197135,0.77598 -0.52867,0.11909 -0.990052,0.21653 -1.025292,0.21653 -0.03524,0 -0.06407,-0.36072 -0.06407,-0.8016 z m 9.652,-2.78855 v -2.57414 l 1.418167,-0.34457 c 1.415188,-0.34385 3.184243,-0.6322 4.466167,-0.72798 0.372533,-0.0278 0.896408,-0.072 1.164167,-0.0982 l 0.486833,-0.0476 v 3.18332 3.18331 h -3.767667 -3.767667 z m -25.693022,18.38565 c 0.06005,-0.27958 0.351494,-1.2349 0.820101,-2.68817 0.773809,-2.39978 2.362202,-5.62327 3.891946,-7.89833 2.545667,-3.78594 6.086196,-7.27146 9.851732,-9.69866 1.464569,-0.94404 1.977256,-1.24271 3.255243,-1.89637 5.037257,-2.57645 10.723101,-3.9593 16.279374,-3.9593 h 1.35345 l -0.05248,-0.3175 c -0.02886,-0.17463 -0.0529,-4.94747 -0.05341,-10.60631 l -9.32e-4,-10.28882 -1.692422,-0.97185 c -0.930832,-0.53452 -1.682233,-1.003652 -1.66978,-1.042515 0.01245,-0.03886 0.657154,-0.438912 1.432669,-0.889 0.775516,-0.450087 1.883391,-1.094566 2.461944,-1.432174 0.578554,-0.337609 1.117717,-0.613834 1.198141,-0.613834 0.08042,0 0.130838,-0.04762 0.11203,-0.105833 -0.01881,-0.05821 -1.679667,-1.05733 -3.690799,-2.220271 -2.011131,-1.162941 -3.64363,-2.153541 -3.627775,-2.201334 0.02685,-0.08095 2.169333,-1.348663 4.487483,-2.655268 l 1.001157,-0.564294 -0.0088,-5.289862 c -0.0048,-2.909424 -0.03891,-5.320019 -0.07577,-5.356878 -0.03686,-0.03686 -7.265242,-0.05642 -16.063072,-0.04347 -15.052662,0.02216 -16.02574,0.03244 -16.499373,0.174263 -1.78489,0.534465 -2.608553,1.753287 -2.84072,4.203577 -0.110617,1.167455 -0.117551,66.637373 -0.0071,66.637373 0.04289,0 0.104569,-0.12383 0.137074,-0.27517 z m 2.218612,-12.05146 c -0.03461,-0.0346 -0.06292,-8.27665 -0.06291,-18.31565 1.6e-5,-17.73775 0.0047,-18.28139 0.166248,-19.268723 0.277915,-1.698596 0.907708,-3.640519 1.688704,-5.207 0.454868,-0.912351 1.368876,-2.340458 2.248795,-3.513666 0.419106,-0.5588 0.860789,-1.1684 0.981517,-1.354667 0.568618,-0.877295 2.995721,-3.089247 4.693719,-4.277644 3.485323,-2.439311 7.583377,-4.073171 11.260668,-4.489534 0.468586,-0.05306 2.89815,-0.115151 5.44072,-0.139055 l 4.594054,-0.04319 -0.02205,3.743565 -0.02205,3.743566 -3.747082,2.166874 c -2.879502,1.665167 -3.722443,2.189076 -3.640667,2.262765 0.05853,0.05274 1.71614,1.02195 3.683582,2.153799 1.967442,1.131849 3.577167,2.087062 3.577167,2.122695 0,0.03563 -1.176862,0.744446 -2.615249,1.57514 -1.438387,0.830694 -2.597504,1.529402 -2.575816,1.552686 0.02169,0.02328 1.227126,0.729649 2.678749,1.569699 l 2.639316,1.52736 0.02156,8.69614 0.02156,8.69613 h -0.496102 c -1.425075,0 -4.888941,0.42507 -6.57436,0.80676 -1.579402,0.35769 -3.696201,0.91573 -3.979333,1.04905 -0.09313,0.0438 -0.321734,0.12513 -0.508,0.18063 -0.87108,0.25951 -3.280843,1.26785 -4.670595,1.95436 -3.919327,1.93606 -6.991788,4.14074 -10.063598,7.22126 -1.768251,1.77326 -3.416406,3.75879 -4.528051,5.45492 -0.07017,0.10706 -0.155891,0.16634 -0.1905,0.13173 z m 15.812077,-18.48394 c 0.900733,-0.23892 2.3901,-0.97662 3.221717,-1.59576 2.566773,-1.91097 4.627685,-5.3736 5.501055,-9.24258 0.363469,-1.61015 0.492609,-2.87317 0.494167,-4.83309 0.0027,-3.451457 -0.585351,-6.19867 -1.906532,-8.906112 -1.500967,-3.075871 -3.391485,-5.090503 -5.872611,-6.258153 -1.931083,-0.908793 -4.153126,-1.031193 -6.154633,-0.339023 -2.551064,0.882219 -4.918458,3.106969 -6.40664,6.020619 -1.030371,2.01732 -1.662051,3.9616 -2.020674,6.219534 -0.213378,1.343445 -0.210424,5.194405 0.005,6.540655 0.867084,5.41826 3.451072,9.61741 7.170133,11.65195 0.617519,0.33781 1.860067,0.77519 2.549599,0.89746 0.76393,0.13546 2.644938,0.0499 3.419402,-0.1555 z m -2.667,-2.26428 c -1.871816,-0.28113 -3.136261,-0.93582 -4.532877,-2.34697 -1.941501,-1.96172 -3.233131,-4.8119 -3.733856,-8.23932 -0.191562,-1.31123 -0.192912,-3.93976 -0.0027,-5.20746 0.493532,-3.288776 1.74429,-6.142145 3.531025,-8.055363 4.400678,-4.712203 10.571851,-2.704804 13.23027,4.303627 0.840498,2.215818 1.215191,4.849516 1.066516,7.496496 -0.356383,6.34497 -3.78482,11.39267 -8.161403,12.01606 -0.58979,0.084 -0.993506,0.0935 -1.397,0.0329 z m 2.116666,-1.71184 c 2.878533,-0.92141 5.181427,-4.61911 5.753186,-9.23776 0.114236,-0.9228 0.114309,-3.22942 1.3e-4,-4.15311 -0.396918,-3.211002 -1.579932,-5.974536 -3.269356,-7.637249 -0.721285,-0.709881 -1.021526,-0.933929 -1.743174,-1.300804 -0.771962,-0.392454 -1.398029,-0.54239 -2.264786,-0.54239 -0.897682,0 -1.528166,0.158901 -2.361857,0.595259 -2.558132,1.338938 -4.408628,4.682641 -4.917304,8.885184 -0.112524,0.92965 -0.111499,3.23617 0.0018,4.15311 0.611683,4.94843 3.137784,8.71499 6.303649,9.39912 0.556876,0.12034 1.885827,0.0345 2.497666,-0.16136 z m -2.463055,-2.40648 c -1.996231,-0.84199 -3.45742,-3.45548 -3.938915,-7.04517 -0.136966,-1.02112 -0.129251,-3.70309 0.01104,-3.83674 0.03344,-0.0319 0.10395,0.0145 0.156696,0.10297 0.76361,1.28105 1.719171,2.56226 2.574034,3.45123 0.367882,0.38256 0.377827,0.40689 0.32106,0.78545 -0.196551,1.31069 0.708632,2.4286 1.976127,2.44054 0.406619,0.004 0.573974,-0.0378 0.82679,-0.20555 l 0.316978,-0.21036 0.638791,0.393 c 0.351335,0.21615 0.971975,0.57327 1.379201,0.7936 l 0.740409,0.4006 -0.179223,0.35563 c -0.525779,1.0433 -1.468379,2.04442 -2.322774,2.46699 -0.419793,0.20762 -0.628649,0.25354 -1.264822,0.27808 -0.651942,0.0252 -0.830374,5.7e-4 -1.235389,-0.17027 z m 5.057473,-5.60609 c -3.159133,-1.80451 -5.759874,-4.32465 -7.185981,-6.963276 -0.434248,-0.803458 -0.742437,-1.619488 -0.742437,-1.965843 0,-0.345432 0.716804,-1.478867 1.37042,-2.166955 1.199972,-1.263258 2.527455,-1.575325 3.943492,-0.927042 0.630359,0.288588 1.062384,0.649484 1.624958,1.357424 1.740062,2.189685 2.521752,5.906302 2.029605,9.649952 -0.09759,0.7423 -0.247547,1.39719 -0.319753,1.39637 -0.03028,-3.5e-4 -0.354417,-0.17163 -0.720304,-0.38063 z M 63.784434,89.019943 c 0,-3.599225 0.190569,-6.658322 0.453191,-7.274832 0.154812,-0.363424 0.428816,-0.606718 0.944864,-0.838966 0.400954,-0.18045 0.57406,-0.193521 3.427945,-0.258852 1.653117,-0.03784 4.282017,-0.05896 5.842,-0.04692 l 2.836334,0.02188 -1.157594,0.563696 c -4.776601,2.32599 -8.367591,5.377164 -11.0948,9.426971 -0.344947,0.512233 -0.739173,1.131319 -0.876058,1.375747 -0.136885,0.244428 -0.277457,0.444453 -0.312382,0.4445 -0.03493,4.7e-5 -0.0635,-1.535904 -0.0635,-3.413225 z"
         id="path3" /></g></g></svg>
